<?xml version="1.0" encoding="utf-8"?>
<!-- Generator: Adobe Illustrator 22.1.0, SVG Export Plug-In . SVG Version: 6.00 Build 0)  -->
<svg version="1.1" id="Layer_1" xmlns="http://www.w3.org/2000/svg" xmlns:xlink="http://www.w3.org/1999/xlink" x="0px" y="0px"
	 viewBox="0 0 159.9 54.2" style="enable-background:new 0 0 159.9 54.2;" xml:space="preserve">
<style type="text/css">
	.st0{enable-background:new    ;}
	.st1{fill:#C0E6F5;}
</style>
<title>logo</title>
<desc>Created with Sketch.</desc>
<g id="All_pages">
	<g id="Home_page_Vidrodzenya_new" transform="translate(-129.000000, -4689.000000)">
		<g id="footer" transform="translate(0.000000, 4640.000000)">
			<g id="logo" transform="translate(130.000000, 47.000000)">
				<g class="st0">
					<path fill="#C0E6F5" d="M67.8,12.2V6.6h-0.1L65.4,12h-0.9l-2.3-5.4h-0.1v5.6H61V4.4h1.4l2.5,5.9H65l2.5-5.9h1.4v7.8H67.8z"/>
					<path fill="#C0E6F5" d="M71.9,12.2V4.4h1.2v7.8H71.9z"/>
					<path fill="#C0E6F5" d="M81.7,7.8l2.8-3.4h1.4l-3.2,3.8l3.5,4h-1.5l-3-3.4h-0.3v3.4h-1.2V8.7h-0.3l-3,3.4h-1.5l3.4-4l-3.2-3.8h1.4
						l2.8,3.4h0.3V4.4h1.2v3.4H81.7z"/>
					<path fill="#C0E6F5" d="M93.7,12.2V8.8h-4v3.4h-1.2V4.4h1.2v3.3h4V4.4h1.2v7.8H93.7z"/>
					<path fill="#C0E6F5" d="M102.2,10.1h-3l-0.7,2.1h-1.2l2.8-7.8h1.3l2.8,7.8h-1.3L102.2,10.1z M99.6,9.1h2.3l-1.1-3.3h-0.1L99.6,9.1
						z"/>
					<path fill="#C0E6F5" d="M109.7,4.4c1.5,0,2.6,1,2.6,2.6c0,1.5-1.1,2.6-2.6,2.6h-1.8v2.6h-1.2V4.4H109.7z M107.8,8.5h1.5
						c1,0,1.6-0.5,1.6-1.5c0-1-0.6-1.5-1.6-1.5h-1.5V8.5z"/>
					<path fill="#C0E6F5" d="M121.8,8.3c0,2.5-1.4,4.1-3.6,4.1c-2.3,0-3.6-1.6-3.6-4.1c0-2.5,1.4-4.1,3.6-4.1
						C120.4,4.2,121.8,5.8,121.8,8.3z M115.8,8.3c0,1.8,0.9,2.9,2.4,2.9c1.5,0,2.4-1.2,2.4-2.9c0-1.8-0.9-2.9-2.4-2.9
						S115.8,6.5,115.8,8.3z"/>
					<path fill="#C0E6F5" d="M124.6,13.7h-1.1v-2.6h0.6c0.6-0.3,0.7-1,0.8-2l0.3-4.6h5.1v6.7h1v2.6h-1.1v-1.5h-5.6V13.7z M125.5,11
						L125.5,11l3.6,0.1V5.5h-2.9L126,9.1C125.9,10,125.8,10.6,125.5,11z"/>
					<path fill="#C0E6F5" d="M138.9,12.2V8.8h-4v3.4h-1.2V4.4h1.2v3.3h4V4.4h1.2v7.8H138.9z"/>
					<path fill="#C0E6F5" d="M148.3,6.5L148.3,6.5l-4,5.7h-1.2V4.4h1.2v5.7h0.1l3.9-5.7h1.2v7.8h-1.2V6.5z"/>
					<path fill="#C0E6F5" d="M157.7,6.5L157.7,6.5l-4,5.7h-1.2V4.4h1.2v5.7h0.1l3.9-5.7h1.2v7.8h-1.2V6.5z M154.8,2
						c0,0.6,0.4,0.9,1,0.9c0.5,0,0.9-0.4,1-0.9h1c0,1-0.8,1.7-1.9,1.7c-1.1,0-1.9-0.6-1.9-1.7H154.8z"/>
				</g>
				<g class="st0">
					<path fill="#C0E6F5" d="M60.6,28.3c0-2,1.4-3.1,3.5-3.2v-0.8h1.2v0.8c2.1,0.1,3.5,1.2,3.5,3.2c0,2-1.4,3.1-3.5,3.2v0.8h-1.2v-0.8
						C62,31.4,60.6,30.2,60.6,28.3z M64.1,26.1c-1.4,0.1-2.3,0.8-2.3,2.1c0,1.3,0.9,2.1,2.3,2.1V26.1z M65.3,26.1v4.3
						c1.4-0.1,2.3-0.8,2.3-2.1C67.6,27,66.7,26.2,65.3,26.1z"/>
					<path fill="#C0E6F5" d="M78.4,28.3c0,2.5-1.4,4.1-3.6,4.1c-2.3,0-3.6-1.6-3.6-4.1c0-2.5,1.4-4.1,3.6-4.1
						C77,24.2,78.4,25.8,78.4,28.3z M72.4,28.3c0,1.8,0.9,2.9,2.4,2.9c1.5,0,2.4-1.2,2.4-2.9c0-1.8-0.9-2.9-2.4-2.9
						S72.4,26.5,72.4,28.3z"/>
					<path fill="#C0E6F5" d="M86.3,32.2v-3.4h-4v3.4h-1.2v-7.8h1.2v3.3h4v-3.3h1.2v7.8H86.3z"/>
					<path fill="#C0E6F5" d="M90.8,33.7h-1.1v-2.6h0.6c0.6-0.3,0.7-1,0.8-2l0.3-4.6h5.1v6.7h1v2.6h-1.1v-1.5h-5.6V33.7z M91.7,31
						L91.7,31l3.6,0.1v-5.6h-2.9l-0.2,3.6C92.2,30,92,30.6,91.7,31z"/>
				</g>
				<g class="st0">
					<path fill="#C0E6F5" d="M61,52.2v-7.8h3.1c1.5,0,2.3,0.7,2.3,1.9c0,0.8-0.6,1.5-1.4,1.7v0.1c1,0.1,1.7,0.9,1.7,1.9
						c0,1.4-1,2.2-2.6,2.2H61z M62.2,47.7h1.4c1.1,0,1.6-0.4,1.6-1.1c0-0.7-0.5-1.1-1.4-1.1h-1.6V47.7z M64,51.1
						c1.1,0,1.7-0.4,1.7-1.3c0-0.8-0.6-1.2-1.7-1.2h-1.7v2.5H64z"/>
					<path fill="#C0E6F5" d="M69.5,52.2v-7.8h1.2v7.8H69.5z"/>
					<path fill="#C0E6F5" d="M74,53.7h-1.1v-2.6h0.6c0.6-0.3,0.7-1,0.8-2l0.3-4.6h5.1v6.7h1v2.6h-1.1v-1.5H74V53.7z M74.9,51L74.9,51
						l3.6,0.1v-5.6h-2.9l-0.2,3.6C75.4,50,75.3,50.6,74.9,51z"/>
					<path fill="#C0E6F5" d="M86.1,44.4c1.5,0,2.6,1,2.6,2.6c0,1.5-1.1,2.6-2.6,2.6h-1.8v2.6h-1.2v-7.8H86.1z M84.3,48.5h1.5
						c1,0,1.6-0.5,1.6-1.5c0-1-0.6-1.5-1.6-1.5h-1.5V48.5z"/>
					<path fill="#C0E6F5" d="M98.2,48.3c0,2.5-1.4,4.1-3.6,4.1c-2.3,0-3.6-1.6-3.6-4.1c0-2.5,1.4-4.1,3.6-4.1
						C96.8,44.2,98.2,45.8,98.2,48.3z M92.2,48.3c0,1.8,0.9,2.9,2.4,2.9c1.5,0,2.4-1.2,2.4-2.9c0-1.8-0.9-2.9-2.4-2.9
						S92.2,46.5,92.2,48.3z"/>
					<path fill="#C0E6F5" d="M101.1,53.7H100v-2.6h0.6c0.6-0.3,0.7-1,0.8-2l0.3-4.6h5.1v6.7h1v2.6h-1.1v-1.5h-5.6V53.7z M101.9,51
						L101.9,51l3.6,0.1v-5.6h-2.9l-0.2,3.6C102.4,50,102.3,50.6,101.9,51z"/>
					<path fill="#C0E6F5" d="M115.8,47.8l2.8-3.4h1.4l-3.2,3.8l3.5,4h-1.5l-3-3.4h-0.3v3.4h-1.2v-3.4H114l-3,3.4h-1.5l3.4-4l-3.2-3.8
						h1.4l2.8,3.4h0.3v-3.4h1.2v3.4H115.8z"/>
					<path fill="#C0E6F5" d="M127.5,52.2h-4.9v-7.8h4.9v1.1h-3.7v2.2h3.5v1h-3.5v2.3h3.7V52.2z"/>
					<path fill="#C0E6F5" d="M135.5,52.2v-3.4h-4v3.4h-1.2v-7.8h1.2v3.3h4v-3.3h1.2v7.8H135.5z"/>
					<path fill="#C0E6F5" d="M145,52.2v-3.4h-4v3.4h-1.2v-7.8h1.2v3.3h4v-3.3h1.2v7.8H145z"/>
				</g>
				<g class="st0">
					<path fill="#C0E6F5" d="M151.3,52.2h-1.4l2.2-3.1c-1.1-0.3-1.8-1.1-1.8-2.3c0-1.4,1.1-2.4,2.6-2.4h3v7.8h-1.2v-2.9h-1.4
						L151.3,52.2z M154.7,45.5h-1.5c-1,0-1.6,0.5-1.6,1.4s0.6,1.4,1.6,1.4h1.5V45.5z"/>
				</g>
				<path fill="#C0E6F5" d="M14,56.2H-1v-52h15V56.2z M1,54.2h11v-48H1V54.2z"/>
				<g id="Group-13" transform="translate(16.875000, 3.000000)">
					<path fill="#C0E6F5" d="M11.9,53.2c-6.7,0-12.2-5.5-12.2-12.3c0-6.8,5.5-12.3,12.2-12.3s12.2,5.5,12.2,12.3
						C24.1,47.6,18.6,53.2,11.9,53.2z M11.9,30.6c-5.6,0-10.2,4.6-10.2,10.3s4.6,10.3,10.2,10.3c5.6,0,10.2-4.6,10.2-10.3
						S17.5,30.6,11.9,30.6z"/>
					<path fill="#C0E6F5" d="M11.9,25.7c-0.4,0-0.8,0-1.1-0.1C4.1,25-0.9,19.1-0.3,12.3C0,9.1,1.6,6.1,4.1,4C6.6,1.9,9.8,0.9,13,1.2
						c6.7,0.6,11.7,6.6,11.1,13.3c-0.3,3.3-1.8,6.2-4.4,8.3C17.5,24.7,14.8,25.7,11.9,25.7z M11.9,3.2C9.5,3.2,7.2,4,5.4,5.5
						c-2.1,1.8-3.4,4.2-3.6,7C1.2,18.1,5.4,23.1,11,23.7c2.7,0.3,5.4-0.6,7.4-2.3c2.1-1.8,3.4-4.2,3.7-7c0.5-5.6-3.6-10.6-9.3-11.2
						v0C12.5,3.2,12.2,3.2,11.9,3.2z"/>
					<path id="Fill-7" fill="#C0E6F5" d="M12.9,13.4c0,0.5-0.4,1-1,1c-0.5,0-1-0.4-1-1c0-0.5,0.4-1,1-1C12.4,12.5,12.9,12.9,12.9,13.4"
						/>
					<path fill="#C0E6F5" d="M11.9,21.8c-0.3,0-0.5,0-0.8,0c-4.6-0.4-7.9-4.5-7.5-9.1c0.2-2.2,1.3-4.2,3-5.7c1.7-1.4,3.9-2.1,6.1-1.9
						l0,0c4.6,0.4,7.9,4.5,7.5,9.1c-0.2,2.2-1.3,4.2-3,5.7C15.7,21.1,13.9,21.8,11.9,21.8z M11.9,7.1c-1.5,0-2.9,0.5-4,1.5
						c-1.3,1.1-2.1,2.6-2.2,4.3c-0.3,3.5,2.3,6.6,5.7,6.9c1.7,0.2,3.3-0.4,4.6-1.4c1.3-1.1,2.1-2.6,2.3-4.3c0.3-3.5-2.2-6.6-5.7-6.9
						C12.3,7.1,12.1,7.1,11.9,7.1z"/>
					<path fill="#C0E6F5" d="M11.9,17.9c-0.1,0-0.3,0-0.4,0c-2.4-0.2-4.2-2.4-4-4.8c0.1-1.2,0.7-2.2,1.6-3c0.9-0.8,2.1-1.1,3.2-1
						c2.4,0.2,4.2,2.4,4,4.8c-0.1,1.2-0.7,2.2-1.6,3C13.9,17.5,12.9,17.9,11.9,17.9z M11.9,11c-0.6,0-1.1,0.2-1.5,0.6
						c-0.5,0.4-0.8,1-0.9,1.6c-0.1,1.3,0.9,2.5,2.2,2.6c0.6,0.1,1.3-0.1,1.8-0.6c0.5-0.4,0.8-1,0.9-1.6c0.1-1.3-0.9-2.5-2.2-2.6l0,0
						C12,11,12,11,11.9,11z"/>
				</g>
			</g>
		</g>
	</g>
</g>
</svg>
