<svg id="Layer_1" data-name="Layer 1" xmlns="http://www.w3.org/2000/svg" viewBox="0 0 438.04 203.7">
   <defs>
      <style>.cls-1{fill:#004c98;}.cls-2{fill:#e30613;}.cls-3{fill:#fff;}</style>
   </defs>
   <path class="cls-1" d="M37.13,108c4.08,2.18,11.69,4,17.5,4,4.8,0,8.25-2.08,8.25-5.53,0-4.26-6.26-5.35-13.33-7.8s-13-6-13-15.32c0-10.43,9.06-16.5,19.58-16.5,6.89,0,13,1.54,16.5,3.35V80.78c-3.45-2.17-9.79-3.9-15.41-3.9-4.45,0-8.71,1.63-8.71,5s2.9,4.9,9.25,6.89c7.89,2.45,16.95,5.71,16.95,16.41,0,11.51-9.7,16.5-21.3,16.5a44,44,0,0,1-16.23-3.26Z"/>
   <rect class="cls-1" x="83.27" y="61.47" width="11.79" height="59.2"/>
   <path class="cls-1" d="M103.48,100.73c0-12.51,8.07-22.22,21-22.22,13.32,0,20.3,6.53,20.3,21,0,12.42-8.07,21.85-21.39,21.85-12.88,0-19.86-6.89-19.86-20.67m29.29-.73c0-6.43-1.55-12.24-8.62-12.24-6.62,0-8.61,5.62-8.61,12.24,0,7.07,2.18,12.51,8.61,12.51,6.71,0,8.62-5.62,8.62-12.51"/>
   <polygon class="cls-1" points="147.81 79.51 160.77 79.51 166.48 99.37 169.11 108.61 169.66 108.61 172.65 99.28 179.09 79.51 191.32 79.51 175.64 120.67 162.13 120.67 147.81 79.51"/>
   <path class="cls-1" d="M218.61,116.86a23.34,23.34,0,0,1-13.15,4.54c-7.07,0-12-4.26-12-11.15,0-8.35,7.89-12.52,19.68-12.52h4.62V94.84c0-4.9-3.17-6.08-7.71-6.08A56.68,56.68,0,0,0,196,90.94V81.23a56.37,56.37,0,0,1,16.14-2.72c10.34,0,17.32,3.18,17.32,14.06v18.22l1.63,9.88H219.33Zm-.82-5.16v-8.26h-4.26c-5.26,0-8.43,1.28-8.43,5,0,3.45,2.27,5.17,5.8,5.17a16.35,16.35,0,0,0,6.89-1.9"/>
   <path class="cls-1" d="M239.9,61.47h11.7v59.2H239.9Zm12.88,38.17V97.73L266,79.51h12.87L264.56,97.65l14,23H264.75Z"/>
   <path class="cls-2" d="M300.55,67.82h13l17.68,52.85H317.68L314.06,108H296.11l-4.54,12.69H279.7Zm-1,30.46h11.79l-1.27-4.71-3.72-13.06h-.45l-4.62,13.06Z"/>
   <path class="cls-2" d="M333.72,79.51h17.59v41.16H339.53V88.85h-5.81Zm4.72-14.59c0-4.26,3.26-6.26,7.34-6.26S353,60.75,353,64.92s-3.09,6.25-7.26,6.25-7.34-2.08-7.34-6.25"/>
   <path class="cls-2" d="M388.48,116.32a19.65,19.65,0,0,1-12.79,5.08c-7.34,0-16.13-5.35-16.13-19.4,0-14.87,10.24-23.49,21.12-23.49a48,48,0,0,1,7.16.64V61.47h11.79v50l1.54,9.16H389.29Zm-.64-6.16V87.94A23.24,23.24,0,0,0,383,87.4c-7.71,0-11.43,4.35-11.43,13.06,0,7.52,2.81,12,9.34,12,2.36,0,4.26-.82,7-2.26"/>
   <path class="cls-1" d="M0,60.92S71,16.76,218.48,16.76,438,60.92,438,60.92,368.21,0,218.48,0,0,60.92,0,60.92"/>
   <rect class="cls-1" x="3.89" y="151.47" width="431.4" height="52.24"/>
   <path class="cls-2" d="M7.74,151.46V203.7H3.89V151.46Z"/>
   <path class="cls-3" d="M21.17,177.76c0-5.2,3.79-13.08,13.23-13.08a16.19,16.19,0,0,1,7.71,1.71V171a11.6,11.6,0,0,0-7.71-2.7c-6.87,0-9.22,5.78-9.22,9.51,0,4.08,2.38,9.34,8.9,9.34a13.16,13.16,0,0,0,5.46-1v-7.39H43.4v9.19a16.27,16.27,0,0,1-9.32,2.79c-9.06,0-12.91-7.19-12.91-12.88Z"/>
   <path class="cls-3" d="M60.52,164.84c7.42.07,12.72,4.79,12.88,12.4a12.88,12.88,0,0,1-13.07,13.49c-9-.09-12.82-7-12.72-13C47.58,172.56,51.46,164.88,60.52,164.84Zm-.13,22.33c5.65-.1,9.12-4.4,9-9.76s-3.57-9-8.9-9c-6.52,0-8.93,5.62-8.9,9.35C51.53,182.09,53.93,187.1,60.39,187.17Z"/>
   <path class="cls-3" d="M90.23,164.84c7.42.07,12.72,4.79,12.88,12.4A12.88,12.88,0,0,1,90,190.73c-9-.09-12.82-7-12.72-13C77.29,172.56,81.17,164.88,90.23,164.84Zm-.13,22.33c5.66-.1,9.13-4.4,9-9.76s-3.57-9-8.9-9c-6.52,0-8.93,5.62-8.9,9.35C81.24,182.09,83.65,187.1,90.1,187.17Z"/>
   <path class="cls-3" d="M108.22,190.25V165h4.5c10.31,0,16.51,3.5,16.51,12.72,0,8.73-6.2,12.52-16.45,12.52Zm3.86-3.56h1.54c7.32,0,11.56-2.35,11.56-9.19,0-6.59-4.4-8.9-11.66-8.9h-1.44Z"/>
   <path class="cls-3" d="M148.83,165v25.24H145V165Z"/>
   <path class="cls-3" d="M155.83,190.25V165h4.49c10.32,0,16.51,3.5,16.51,12.72,0,8.73-6.19,12.52-16.44,12.52Zm3.85-3.56h1.54c7.33,0,11.57-2.35,11.57-9.19,0-6.59-4.4-8.9-11.66-8.9h-1.45Z"/>
   <path class="cls-3" d="M193.28,190.25H181.49V165h11.79v3.59h-7.93v7.23H191v3.57h-5.62v7.29h7.93Z"/>
   <path class="cls-3" d="M208.73,165l9.35,25.24h-4.14l-3-8.57h-8.48l-3,8.57H195.3L205,165Zm-5,13.1h6l-3-8.51Z"/>
   <path class="cls-3" d="M232.76,184.34a8.63,8.63,0,0,0,5.62,2.7c2.35,0,4.05-1.35,4.05-3.66,0-4.37-10.54-3.76-10.54-11.47a7.25,7.25,0,0,1,7.39-7.23,7.93,7.93,0,0,1,5.17,1.74v4.91c-.9-1.31-2.83-3.08-5.14-3.08a3.33,3.33,0,0,0-3.53,3.5c0,4.72,10.63,3.92,10.63,11.47,0,4.72-3.95,7.48-8.16,7.48a8.37,8.37,0,0,1-5.49-2Z"/>
   <path class="cls-3" d="M264.88,190.25H251.55V165h3.86v21.68h9.47Z"/>
   <path class="cls-3" d="M279.18,164.84c7.41.07,12.71,4.79,12.88,12.4A12.89,12.89,0,0,1,279,190.73c-9-.09-12.81-7-12.72-13C266.23,172.56,270.12,164.88,279.18,164.84Zm-.13,22.33c5.65-.1,9.12-4.4,9-9.76s-3.57-9-8.89-9c-6.53,0-8.94,5.62-8.9,9.35C270.18,182.09,272.59,187.1,279.05,187.17Z"/>
   <path class="cls-3" d="M305.45,185.82,313,165h4.14l-9.8,25.24h-4L294.18,165h4.14Z"/>
   <path class="cls-3" d="M330.57,165l9.35,25.24h-4.14l-3-8.57h-8.48l-3,8.57h-4.15L326.81,165Zm-5,13.1h6l-2.95-8.51Z"/>
   <path class="cls-3" d="M348,165v12.43L359,165h5.13l-11.69,12.68L364,190.25h-5.2l-10.86-12v12h-3.86V165Z"/>
   <path class="cls-3" d="M371.82,165v25.24H368V165Z"/>
   <path class="cls-3" d="M389.42,165l9.35,25.24h-4.15l-3-8.57h-8.48l-3,8.57H376L385.66,165Zm-5,13.1h6l-2.95-8.51Z"/>
</svg>