<svg width="333" height="163" fill="none" xmlns="http://www.w3.org/2000/svg"><g clip-path="url(#clip0)" fill="#EE7236"><path d="M23.635 137.186c6.78 6.532 16.436 10.747 28.043 13.276v-5.796c-10.477-1.475-19.928-3.898-28.043-7.48zm32.46 8.008v6.111c78.48 13.803 238.214-40.039 276.016-1.159-23.523-51.418-183.976 5.373-276.016-4.952zm0-36.141h-4.417v35.508c1.438.211 2.979.422 4.417.527v-36.035zm0-2.74c-.616-.527-1.335-.948-1.952-1.475a23.597 23.597 0 01-1.952-1.475c-.102.105-.308.316-.41.527v5.163h4.417v-2.74h-.103zM51.678 163h4.417v-11.695c-1.54-.317-2.979-.527-4.417-.843V163z"/><path d="M51.678 144.667v5.795c1.438.316 2.876.632 4.417.842v-6.111c-1.54-.21-2.979-.316-4.417-.526zM23.943 73.545l.206.21c0 1.476-.206 2.95-.72 4.32.514-1.37.72-2.844.72-4.32l-.206-.21c-.308-.316-.719-.738-1.027-1.16.41.528.719.844 1.027 1.16zm-9.04 8.745c-1.027-.105-2.157-.105-3.184-.105h-.206c.925-2.318 1.233-4.53 1.747-6.954-.206 0-.309-.105-.514-.105-1.027-.211-2.055-.738-3.184-1.054-.206.738-.309 1.475-.411 2.107-.411 2.424-.822 4.426-1.85 6.638 0 0 3.493.211 3.904 0 1.644-.526 3.8.211 5.65.422-1.541-.21-2.466-.843-1.952-.949zm12.943-6.217c.103-.316.103-.737.206-1.053-.103.316-.103.737-.206 1.053z"/><path d="M7.199 72.913h-.205c1.438-2.213 2.157-4.425 3.081-6.849-.205-.105-.513-.21-.719-.316-.822-.422-1.746-1.054-2.568-1.58-.41.842-.719 1.685-1.027 2.528-.822 2.213-1.644 4.215-2.98 6.111 0 0 3.39.843 3.802.843.924-.105 1.951.211 3.081.632 0-.21.103-.316.206-.526-1.027-.527-1.85-.738-2.671-.843zm16.231-3.372c.102.105.307.105.41.21l.308.317.308-.948c-.616-1.265-1.232-2.635-1.643-4.11-.41-.526-.822-1.159-1.233-1.686-.513.738-1.027 1.37-1.746 2.002.308.527.616 1.054.925 1.37 0 .106.102.21.102.21-.102.528-.205 1.054-.41 1.581 1.026.106 1.951.316 2.67.633.103.316.206.316.308.421z"/><path d="M23.738 69.752c-.103-.106-.206-.211-.411-.211.205.105.308.21.41.21zM13.157 75.23s.103 0 0 0c.103-.105.103-.105 0 0 .103-.21.103-.315.103-.42-.925 0-2.055-.844-2.877-1.16-.205-.105-.513-.105-.719-.21-.102.21-.102.316-.205.526 1.027.422 2.157.843 3.184 1.054.206.105.411.21.514.21zm8.526-4.003c-.41-1.16-.924-2.108-1.027-2.529.925.105 1.85.316 2.568.632-.719-.421-1.643-.527-2.67-.632-.103.422-.309.843-.514 1.264 1.027.633 2.054 1.686 2.876 2.53l-1.233-1.265z"/><path d="M18.293 75.547c.205 0 .41-.106.616-.106a5.847 5.847 0 001.439-.526c.102-.106.205-.106.308-.211.102 0 .102-.105.205-.105.822-.527 1.438-1.265 2.055-2.108-.822-.843-1.85-1.896-2.877-2.529-1.232 2.74-3.492 4.742-6.574 4.847h-.103c0 .106-.102.21-.102.422l1.54.316c1.13.105 2.26.105 3.493 0zM4.426 62.166c-.103 0-.103 0-.206-.106 1.85-1.791 2.98-3.793 4.417-5.795-.102-.105-.308-.21-.513-.421-.822-.633-1.541-1.475-2.363-2.318a24.285 24.285 0 00-1.438 2.002C3.09 57.53 1.858 59.215.111 60.796c0 0 3.082 1.58 3.493 1.686 1.027.105 2.054.737 3.082 1.475.102-.21.205-.316.308-.527a60.162 60.162 0 00-2.568-1.264zM21.58 63.43c.206-.316.411-.527.514-.843-.41-1.475-.616-2.95-.822-4.53-.205-.528-.513-1.16-.719-1.687a9.79 9.79 0 01-2.054 1.58c.205.528.41 1.054.513 1.476 0 .105.103.21.103.316-.205.632-.513 1.16-.822 1.686 1.233.316 2.466.948 3.082 1.686 0 .105.103.21.206.316z"/><path d="M21.58 63.43l-.308-.316c-.616-.843-1.849-1.37-3.081-1.686-.206.316-.514.738-.72 1.054.822.843 1.644 2.002 2.363 3.055a17.097 17.097 0 001.747-2.107zm-11.504 2.529c.102-.106.102-.211.205-.422v-.105h-.205c-.925-.211-1.85-1.37-2.671-1.792-.103-.105-.308-.105-.411-.21-.103.21-.205.316-.308.526.924.633 1.746 1.265 2.568 1.581.308.21.513.316.822.421z"/><path d="M19.834 65.432c-.719-1.054-1.438-2.213-2.362-3.056-1.747 2.213-4.315 3.582-7.19 3.056v.105c-.104.105-.104.21-.206.421 1.438.633 2.979 1.16 4.52 1.37 1.951.21 3.8-.632 5.238-1.896zm.514-9.589c.103.211.103.317.205.527l.616-.632v-1.264c0-1.265.103-2.529.206-3.793l-.308-1.58c-.72.42-1.541.842-2.363 1.158.103.632.206 1.16.308 1.686v.316c-.308.527-.719.948-1.13 1.37 1.028.527 2.055 1.37 2.466 2.212zM3.193 51.734c.925.316 1.747 1.054 2.568 1.897.103-.106.206-.316.411-.422-.719-.632-1.438-1.159-2.157-1.686-.103 0-.103-.105-.205-.105 2.157-1.264 3.698-2.95 5.444-4.742-.206-.21-.308-.421-.514-.632-.616-.737-1.13-1.686-1.746-2.634-.616.527-1.233 1.054-1.746 1.58-1.644 1.686-3.185 3.056-5.24 4.215.104.106 2.774 2.318 3.185 2.529z"/><path d="M20.553 56.37c-.103-.21-.103-.316-.205-.526-.411-.949-1.438-1.686-2.569-2.318l-.924.948c.616 1.054 1.13 2.318 1.644 3.477.719-.422 1.335-.948 2.054-1.58zm-12.429-.526c.205.105.308.21.513.421l.308-.316c-.924-.421-1.54-1.686-2.26-2.318-.205-.105-.308-.316-.513-.422l-.411.422c.822.737 1.643 1.686 2.363 2.213z"/><path d="M18.396 57.95c-.41-1.158-.924-2.423-1.643-3.476-2.26 1.896-5.034 2.74-7.91 1.475l-.308.316c1.335.948 2.773 1.896 4.314 2.423 1.952.632 3.904.211 5.547-.737zM5.658 40.882c0-.106-.102-.106-.205-.211 2.465-.843 4.314-2.213 6.574-3.583-.102-.21-.308-.421-.41-.737a19.42 19.42 0 01-1.13-2.95c-.822.421-1.644.843-2.363 1.37-1.85 1.37-3.596 2.423-5.855 3.16 0 0 2.157 2.74 2.568 2.95.924.527 1.54 1.581 2.26 2.53.102-.106.308-.211.513-.317-.616-.737-1.233-1.475-1.952-2.212zm17.052 3.16v-1.79c-.822.315-1.643.42-2.568.526 0 .632-.103 1.264-.103 1.686v.316c-.41.422-.821.737-1.335 1.054 1.027.843 1.85 1.896 2.157 2.95 0 .105.103.21.103.421.205-.105.41-.316.616-.421.308-1.686.617-3.267 1.13-4.742z"/><path d="M9.562 46.255c-.822-.526-1.13-2.002-1.746-2.74-.103-.104-.206-.315-.308-.42-.206.105-.309.21-.514.316.616.948 1.13 1.896 1.746 2.634.206.21.308.421.514.632l.308-.316c.103-.106 0-.106 0-.106zm11.299 2.424c-.205-1.054-1.13-2.002-2.157-2.95-.308.21-.72.421-1.027.632.41 1.159.719 2.529.924 3.793.822-.316 1.644-.632 2.363-1.16 0 0-.103-.21-.103-.315z"/><path d="M12.952 49.838c1.746 1.053 3.698 1.053 5.547.421-.205-1.264-.411-2.634-.925-3.793-2.568 1.37-5.444 1.686-8.012-.105l-.308.316c1.13 1.159 2.363 2.318 3.698 3.16zM9.768 30.661c0-.105-.103-.105-.103-.21 2.465-.317 4.622-1.16 6.882-1.897-.102-.21-.102-.527-.205-.737-.308-.949-.411-2.108-.514-3.162-.821.211-1.54.422-2.26.738-2.157.843-4.109 1.37-6.471 1.58-.103 0 1.54 3.162 1.849 3.478.719.737 1.232 1.896 1.643 3.055.206-.105.411-.21.514-.21-.41-.949-.822-1.792-1.335-2.635zM22.71 42.252c.206-.106.514-.211.72-.317.616-1.685 1.437-3.266 2.362-4.741.103-.422.205-.948.308-1.37-.822.106-1.746.106-2.568 0-.206.632-.308 1.16-.411 1.58 0 .106-.103.211-.103.317a12.18 12.18 0 01-1.643.843c.822 1.053 1.438 2.212 1.438 3.266-.103.105-.103.21-.103.422z"/><path d="M22.71 41.725c0-1.054-.616-2.213-1.438-3.267-.41.106-.821.316-1.232.422.205 1.159.205 2.634.102 3.898.822-.105 1.747-.21 2.569-.527v-.526zm-10.58-4.636c.103-.106.205-.106.308-.211h.103l-.103-.105c-.616-.738-.719-2.213-1.027-3.056-.103-.105-.103-.316-.205-.422-.206.106-.411.106-.514.211a19.44 19.44 0 001.13 2.95c0 .211.205.422.308.633z"/><path d="M20.142 42.778c.103-1.264.103-2.634-.102-3.898-2.671.632-5.548.21-7.602-2.002h-.103c-.103.105-.205.105-.308.21.822 1.476 1.644 2.74 2.876 3.9 1.438 1.474 3.39 1.896 5.24 1.79zM15.725 21.81c0-.105 0-.105-.102-.21 2.568.21 4.828-.21 7.396-.422 0-.316 0-.526-.103-.843-.103-.948.103-2.001.205-3.16-.924 0-1.849.105-2.67.21-2.26.316-4.315.527-6.677.211-.103 0 .821 3.477 1.13 3.793.616.843.821 2.002.924 3.267.206 0 .411-.106.616-.106-.205-.948-.41-1.896-.719-2.74zm10.478 13.593c0 .105-.103.316-.103.421.205 0 .41-.105.616-.105 1.028-1.475 2.158-2.845 3.287-4.215.206-.421.309-.843.514-1.159-.822-.105-1.746-.316-2.465-.632-.308.527-.514 1.053-.72 1.475-.102.105-.102.21-.205.21-.513.212-1.13.317-1.643.422.513 1.265.924 2.634.719 3.583z"/><path d="M26.1 35.824c0-.105.103-.316.103-.421.205-1.054-.206-2.319-.72-3.583-.41.105-.821.105-1.232.105-.103 1.265-.41 2.635-.719 3.794.822.21 1.746.21 2.568.105zm-9.45-7.27c.102 0 .308-.105.41-.105 0 0 0-.106-.102-.106-.514-.843-.206-2.318-.411-3.266 0-.21-.103-.316-.103-.527-.206 0-.41.106-.616.106.102 1.053.205 2.212.513 3.16.103.211.206.527.308.738z"/><path d="M23.532 35.824c.308-1.159.72-2.529.72-3.793-2.877.105-5.65-.948-7.191-3.582-.103 0-.308.105-.411.105.514 1.58 1.027 3.16 2.054 4.53 1.028 1.686 2.877 2.53 4.828 2.74zm.103-21.6v-.21c2.26.843 4.52.948 6.882 1.264 0-.21 0-.316.103-.527.102-1.053.513-2.212.822-3.266l-2.158-.316c-2.26-.21-4.314-.527-6.471-1.37 0 0 .103 3.583.205 4.004.411 1.054.308 2.213.206 3.477h.616c-.103-1.054-.103-2.002-.205-3.056zm7.088 15.7c-.103.105-.103.316-.206.421.206 0 .411 0 .617.105 1.438-1.37 2.978-2.634 4.622-3.687.103-.211.308-.422.41-.633-.82-.316-1.643-.632-2.362-1.159-.41.422-.719.843-1.027 1.16l-.205.21a5.45 5.45 0 01-1.85 0c.412 1.37.514 2.634 0 3.583zm-7.705-9.588c0 .316 0 .527.103.843h.514c0-.106 0-.106-.103-.211-.308-.948.206-2.318.206-3.267v-.421h-.617c-.102.948-.205 2.107-.102 3.056z"/><path d="M30.723 29.924c.41-.948.308-2.318 0-3.582-.411 0-.822-.106-1.233-.211-.308 1.159-.925 2.423-1.541 3.582a10.65 10.65 0 002.465.633c.206-.106.308-.317.308-.422z"/><path d="M28.052 29.713c.616-1.054 1.233-2.318 1.54-3.582-2.773-.527-5.135-2.213-6.06-5.058h-.513c.102 1.686.41 3.266.924 4.741.822 2.002 2.363 3.267 4.109 3.899zm4.314-20.757v-.21c2.26 1.264 4.52 1.896 6.883 2.739.102-.211.205-.527.308-.738.308-.948.924-1.791 1.438-2.74-.822-.42-1.643-.631-2.465-.948-2.26-.632-4.11-1.37-6.164-2.634 0 0-.616 3.477-.513 3.899.102.948-.103 2.107-.411 3.16.205 0 .41.106.514.106.102-.948.308-1.791.41-2.634zm4.109 16.754c-.103.105-.205.315-.308.42.103 0 .205.106.308.106 1.746-1.054 3.595-2.002 5.444-2.74.206-.105.309-.316.514-.42a9.792 9.792 0 01-2.054-1.581c-.514.421-.925.737-1.336 1.053-.103.106-.205.106-.205.106a46.078 46.078 0 00-1.644-.316c.103 1.264-.103 2.528-.719 3.371z"/><path d="M36.475 25.709c.617-.843.822-2.107.822-3.477-.411-.106-.822-.211-1.233-.422a22.071 22.071 0 01-2.26 3.161c.72.422 1.541.843 2.363 1.16.103-.211.205-.317.308-.422zm-5.958-10.431c.103 0 .308 0 .411.105 0-.948.72-2.107.924-3.055 0-.21.103-.527.103-.738-.205 0-.41-.105-.513-.105-.308 1.159-.72 2.318-.822 3.266-.103.21-.103.316-.103.527z"/><path d="M30.517 20.44c.411 2.003 1.644 3.478 3.288 4.532.821-.949 1.746-2.002 2.26-3.161-2.671-1.054-4.828-3.267-5.24-6.428v-.105c-.102 0-.308 0-.41-.105-.103 1.896-.206 3.582.102 5.268zm12.019 2.53c.102.105.205.105.308.21 1.951-.737 4.006-1.264 6.163-1.475.206-.105.308-.21.514-.21-.617-.633-1.233-1.265-1.644-2.002-.616.316-1.13.527-1.54.737-.103 0-.206.106-.309.106-.616-.211-1.13-.422-1.643-.738-.309 1.264-.72 2.529-1.438 3.266-.206-.105-.309 0-.411.106zm0-17.596c0-.106 0-.106.102-.211 1.85 1.791 3.904 2.845 6.061 4.215.206-.211.308-.527.514-.738.513-.843 1.232-1.58 1.849-2.318-.617-.632-1.438-1.054-2.157-1.475-2.055-1.16-3.801-2.318-5.445-4.004 0 0-1.335 3.266-1.335 3.688-.103 1.053-.617 2.212-1.233 3.266.206.105.308.21.514.316.41-.843.822-1.791 1.13-2.74z"/><path d="M39.249 11.38c.103 0 .205.105.41.105h.104v-.21c.102-.949 1.13-2.003 1.54-2.846.103-.105.103-.316.206-.421-.206-.105-.308-.21-.514-.316-.513.948-1.027 1.896-1.438 2.74-.103.42-.205.737-.308.948zm3.595 11.274c.72-.633 1.233-1.897 1.438-3.267a8.97 8.97 0 01-1.027-.632c-.72.948-1.849 1.791-2.774 2.634a9.794 9.794 0 002.055 1.58l.308-.315z"/><path d="M40.481 21.39c.925-.738 2.055-1.687 2.774-2.635-2.26-1.686-3.8-4.11-3.493-7.165h-.102c-.103 0-.206-.105-.411-.105-.514 1.58-.925 3.16-1.028 4.741 0 2.002.925 3.793 2.26 5.163zm9.348-.211c-.103.105-.206.105-.308.21l.205.211c1.233-.105 2.466-.21 3.801-.21.925 0 1.849 0 2.67.105.103 0 .206-.106.309-.106-.514-.737-.925-1.475-1.233-2.318-.616.106-1.13.211-1.54.316h-.309c-.513-.316-1.027-.737-1.438-1.053-.616 1.159-1.335 2.318-2.157 2.845zm3.184-17.913c-.308 1.054-1.13 2.002-1.951 2.95a.812.812 0 01.41.422 52.26 52.26 0 001.747-2.529c0-.105.102-.105.102-.21 1.336 2.001 3.082 3.477 4.726 5.268l.41-.422c.72-.737 1.644-1.37 2.569-2.107-.514-.527-1.028-1.054-1.541-1.475C57.739 3.583 56.3 2.107 55.068 0c.102 0-1.952 2.845-2.055 3.266z"/><path d="M49.419 21.39c.102-.106.205-.106.308-.212.924-.526 1.643-1.685 2.157-2.95-.308-.316-.617-.527-.822-.843-.924.738-2.157 1.37-3.287 1.897a11.329 11.329 0 001.644 2.107zM48.7 9.378c.102.105.307.105.41.21 0-.105 0-.21.103-.316.308-.948 1.54-1.686 2.157-2.423.103-.105.103-.21.205-.316-.102-.106-.308-.21-.41-.422-.72.738-1.439 1.58-1.952 2.318-.206.422-.411.633-.514.949z"/><path d="M47.775 19.387c1.13-.527 2.362-1.159 3.287-1.896-1.85-2.108-2.876-4.847-1.952-7.797-.102-.211-.308-.211-.41-.317-.823 1.37-1.542 2.74-1.952 4.32-.617 2.002 0 4.004 1.027 5.69zm14.895 3.372h.513c-.308-.843-.513-1.686-.719-2.529h-1.951l-1.13-1.159c-.822 1.054-1.747 2.002-2.671 2.318-.103 0-.308.105-.411.105l.103.106c2.26.105 4.314.527 6.266 1.159zm.719-17.596c.102-.105.102-.105.102-.21 1.028 2.423 2.466 4.32 3.904 6.427.205-.106.41-.317.719-.422.822-.527 1.746-.948 2.774-1.37-.411-.843-.925-1.58-1.439-2.318-1.438-1.896-2.568-3.687-3.39-5.9 0-.105-2.465 2.423-2.773 2.845-.514.843-1.335 1.58-2.157 2.318.103.105.205.316.41.421.617-.527 1.233-1.053 1.85-1.79zm-2.466 2.423c.206-.105.308-.316.514-.421-.103-.106-.206-.316-.411-.422-.925.738-1.85 1.37-2.568 2.108l-.411.421.308.316c.514-.948 1.849-1.37 2.568-2.002z"/><path d="M56.814 21.284c1.027-.316 1.952-1.265 2.671-2.318a3.797 3.797 0 01-.72-1.054c-1.13.527-2.465.843-3.697 1.054.308.843.719 1.58 1.233 2.318h.513z"/><path d="M55.171 18.966c1.233-.211 2.568-.527 3.698-1.054-1.54-2.529-2.054-5.584-.41-8.43l-.31-.315c-1.129 1.264-2.259 2.528-2.978 4.109-.925 1.791-.72 3.898 0 5.69zM73.558 8.64c.103 0 .103-.105.206-.105.41 2.529 1.438 4.636 2.362 6.954.206-.106.514-.21.72-.316.924-.316 1.951-.527 2.978-.738a13.976 13.976 0 00-.822-2.212c-.924-2.213-1.643-4.11-1.951-6.533 0 0-2.98 1.791-3.287 2.107-.72.843-1.747 1.37-2.877 1.897.103.21.206.316.308.527.72-.527 1.541-1.054 2.363-1.58zM63.286 22.654c0 .105.102.21.102.21 2.055.738 4.11 1.58 5.958 2.74a.76.76 0 01.411.105c-.205-.843-.205-1.791-.205-2.634a48.04 48.04 0 01-1.644-.316c-.103 0-.205-.105-.308-.105a24.29 24.29 0 01-.924-1.686c-1.028.843-2.055 1.58-3.082 1.686h-.308z"/><path d="M63.697 22.654c1.027-.106 2.054-.843 3.081-1.686a5.229 5.229 0 01-.41-1.16c-1.13.317-2.568.317-3.698.422.102.843.41 1.686.719 2.53 0-.106.102-.106.308-.106zm3.698-11.169c.103.105.103.21.206.316v.105l.102-.105c.72-.738 2.055-.843 2.876-1.37.103-.105.206-.105.411-.21-.102-.212-.205-.317-.308-.528-.924.422-1.952.843-2.773 1.37 0 .105-.309.21-.514.422z"/><path d="M63.8 14.646c-1.233 1.58-1.541 3.582-1.233 5.479 1.233 0 2.568-.105 3.698-.422-.822-2.739-.617-5.69 1.438-7.902v-.105c-.103-.106-.103-.211-.206-.316-1.438.948-2.67 2.002-3.697 3.266zm18.797-.632c.103 0 .103-.106.206-.106-.103 2.634.514 4.952.924 7.481.309 0 .514-.105.822-.105.925-.106 1.952-.106 3.082 0 0-.949-.206-1.792-.411-2.74-.514-2.318-.822-4.425-.616-6.743 0 0-3.287 1.053-3.698 1.37-.822.632-1.952.948-3.082 1.159.103.21.103.421.103.526.924-.105 1.849-.421 2.67-.842zM70.066 25.709c-.103 0-.309 0-.411-.105v.21c1.849 1.054 3.492 2.424 5.136 3.794.205.105.308.105.514.21 0-.843.205-1.79.41-2.634-.513-.21-1.13-.527-1.54-.632-.103 0-.206-.105-.206-.105-.205-.527-.41-1.054-.513-1.686-1.13.632-2.363 1.159-3.39.948z"/><path d="M69.655 25.71c.102 0 .308 0 .41.105 1.028.105 2.26-.316 3.39-.949-.102-.421-.205-.843-.205-1.264-1.233 0-2.568-.21-3.8-.527 0 .843.102 1.686.205 2.634zm6.471-10.221c.103.105.103.316.206.42l.102-.104c.822-.527 2.157-.422 3.082-.633.206 0 .308-.105.514-.21 0-.211-.103-.422-.103-.527-1.027.21-2.157.421-2.98.737a3.42 3.42 0 00-.82.316z"/><path d="M69.552 22.97c1.232.21 2.568.526 3.8.526-.308-2.95.514-5.795 2.98-7.586-.103-.105-.206-.316-.206-.421-1.541.632-2.98 1.264-4.212 2.318-1.643 1.264-2.26 3.266-2.362 5.163zm6.163 7.059c-.103-.105-.308-.105-.41-.21v.21c1.643 1.58 3.081 3.266 4.416 5.057.103.106.206.106.309.211a12.55 12.55 0 01.924-2.529 50.222 50.222 0 00-1.335-1.053l-.206-.211c-.102-.632-.102-1.264-.102-1.897-1.336.633-2.569.738-3.596.422zM90.507 21.6h.206c-.617 2.423-.617 4.741-.72 7.27h.823c.924.105 1.951.422 2.978.632.103-.843.103-1.58.206-2.318 0-2.423.205-4.425.822-6.743 0 0-3.39.316-3.904.527-.924.421-2.157.527-3.39.421v.632c1.027-.105 2.055-.21 2.98-.421z"/><path d="M84.55 21.39c-.309 0-.514.104-.822.104 0 .106 0 .317.103.422v.105c.102 0 .102-.105.205-.105.924-.316 2.26.105 3.184.105h.411v-.632c-1.13-.105-2.157-.105-3.081 0zm-8.835 8.64c.925.315 2.26.21 3.493-.211 0-.422 0-.843.103-1.265-1.13-.21-2.466-.737-3.493-1.264-.206.843-.411 1.686-.411 2.634.103 0 .205 0 .308.105z"/><path d="M75.715 27.29c1.13.527 2.363 1.053 3.493 1.264.308-2.845 1.746-5.373 4.52-6.532v-.106c0-.105 0-.316-.103-.421-1.541.21-3.184.632-4.623 1.37-1.643.842-2.67 2.528-3.287 4.425zm20.853 3.16h.205c-1.13 2.213-1.54 4.426-2.157 6.744.205 0 .308.105.513.105 1.028.317 2.055.843 3.082 1.265l.617-2.213c.513-2.318 1.13-4.32 2.259-6.427 0 0-3.492-.421-3.903-.316-1.027.21-2.157 0-3.39-.316 0 .21-.103.421-.103.632.925.316 1.85.421 2.877.527zm-16.333 5.163c-.103-.105-.205-.105-.308-.21v.21c1.233 1.791 2.26 3.583 3.082 5.585l.41.421c.411-.843.822-1.58 1.439-2.212-.411-.422-.72-.843-1.028-1.16l-.205-.21c0-.527.103-1.16.205-1.686-1.335-.105-2.67-.21-3.595-.738z"/><path d="M89.994 28.87v.527h.205c.925-.21 2.157.632 3.082.738.205 0 .308 0 .514.105 0-.21.102-.422.102-.632-1.027-.211-2.054-.527-2.979-.633-.41-.105-.719-.105-.924-.105zm-9.759 6.744c.822.632 2.157.632 3.493.632.102-.422.205-.843.308-1.16-1.13-.526-2.26-1.369-3.185-2.106-.41.737-.719 1.685-.924 2.528.103 0 .205 0 .308.106z"/><path d="M85.166 29.186c-1.952.527-3.39 2.002-4.315 3.794.925.737 2.158 1.58 3.185 2.107.822-2.845 2.773-5.058 5.855-5.69v-.527c-1.54-.105-3.082-.105-4.725.316zm15.306 10.853c.102 0 .102 0 .205.105-1.54 2.108-2.465 4.32-3.595 6.638.205.106.513.21.719.422.822.421 1.643 1.159 2.465 1.79.514-.737.925-1.58 1.233-2.423.924-2.212 1.849-4.003 3.39-5.9 0 0-3.287-1.054-3.698-1.054-.925 0-1.952-.316-2.98-.843-.102.211-.102.316-.205.527.822.211 1.644.527 2.466.738zm-17.155 1.475c0 .105-.103.105-.103.21.719 1.897 1.335 3.9 1.746 5.901.206.21.308.527.514.738a8.002 8.002 0 011.849-1.897c-.308-.527-.616-1.054-.822-1.475 0-.105-.103-.21-.103-.316.103-.527.309-1.054.514-1.58-1.233-.211-2.465-.633-3.184-1.37-.103 0-.206-.106-.411-.211z"/><path d="M83.728 41.935c.719.738 1.952 1.16 3.184 1.37.206-.421.308-.843.514-1.159a16.639 16.639 0 01-2.671-2.74c-.514.738-1.027 1.476-1.438 2.213.205 0 .308.106.41.316zm10.889-4.741c0 .105-.103.316-.103.422.924.105 1.952 1.053 2.876 1.37.205.105.514.21.719.21.103-.21.103-.316.206-.527-1.028-.421-2.055-1.053-3.082-1.264-.308-.105-.514-.105-.617-.21z"/><path d="M84.755 39.301c.822.948 1.746 2.002 2.67 2.74 1.439-2.635 3.801-4.531 6.883-4.32h.103c0-.106.102-.317.102-.422-1.643-.421-3.287-.737-5.033-.737-1.849.105-3.493 1.159-4.725 2.739zm1.027 9.483c-.102-.105-.205-.21-.205-.421l-.308.316c.308 1.896.513 3.793.513 5.69v.21c.103.316.206.527.308.843.72-.527 1.438-1.053 2.158-1.37-.206-.526-.309-1.053-.514-1.475 0-.105 0-.21-.103-.316.308-.527.617-1.159 1.028-1.58-1.233-.422-2.363-1.054-2.877-1.897zm14.484.106c-.103.21-.206.316-.308.526.822.527 1.643 1.054 2.568 1.476.103 0 .103.105.205.105-1.951 1.58-3.287 3.582-4.828 5.479.206.105.308.316.514.421.719.633 1.438 1.58 2.157 2.424a15.384 15.384 0 001.644-2.002c1.335-1.897 2.67-3.477 4.622-4.952 0 0-2.979-1.791-3.39-1.897-1.232-.105-2.157-.843-3.184-1.58z"/><path d="M85.474 48.362c.102.106.205.211.205.422.514.843 1.746 1.475 2.98 1.897.205-.317.513-.633.82-.949-.82-.843-1.54-2.107-2.156-3.16-.617.526-1.233 1.158-1.85 1.79zm11.608-1.685c-.103.105-.103.21-.206.316 0 0 0 .105-.103.105h.206c.924.211 1.746 1.476 2.568 2.002.103.106.205.106.41.211.104-.21.206-.316.309-.527-.822-.632-1.644-1.37-2.465-1.79-.206 0-.411-.212-.72-.317z"/><path d="M87.323 46.571c.616 1.054 1.335 2.318 2.157 3.161 1.849-2.107 4.52-3.266 7.396-2.529 0 0 0-.105.103-.105.102-.105.102-.21.205-.316-1.438-.738-2.876-1.37-4.52-1.686-1.951-.421-3.8.21-5.341 1.475zM84.96 61.744c0 .316.103.632.103.948.822-.421 1.644-.737 2.465-.843-.102-.632-.102-1.264-.102-1.686v-.316c.41-.421.821-.948 1.232-1.37-1.027-.737-2.054-1.58-2.362-2.528-.103-.211-.103-.316-.206-.527l-.308.316c-.205 2.107-.41 4.11-.822 6.006zm15.101-2.002c.616.633 1.335 1.265 2.054 1.897.103 0 .103.105.206.105-2.26 1.16-4.007 2.845-5.958 4.425.205.211.308.422.513.633.514.737 1.028 1.79 1.541 2.74.72-.528 1.438-1.054 2.055-1.687 1.746-1.58 3.389-2.845 5.547-3.793 0 0-2.568-2.423-2.979-2.634-.925-.421-1.747-1.264-2.466-2.107-.205.21-.308.316-.513.421z"/><path d="M99.65 59.32l.411.422c.102-.105.308-.21.411-.421-.72-.843-1.439-1.791-2.158-2.424-.205-.105-.308-.316-.513-.421l-.308.316c.924.527 1.438 1.896 2.157 2.529zm-13.457-3.266c.308.949 1.335 1.791 2.363 2.529.308-.316.616-.527 1.027-.843-.617-1.053-1.027-2.423-1.336-3.582-.821.421-1.54.843-2.157 1.37 0 .21.103.316.103.526z"/><path d="M88.248 54.158a21.296 21.296 0 001.335 3.582c2.362-1.686 5.239-2.318 7.91-.843l.308-.316c-1.233-1.054-2.568-2.107-4.212-2.74-1.746-.842-3.595-.526-5.341.317zm-3.082 8.956c0-.105 0-.316-.103-.422-.102.106-.308.106-.41.211-.514 1.897-1.13 3.688-1.952 5.48 0 .42-.103.737-.103 1.158.822-.21 1.746-.316 2.568-.421.103-.633.206-1.16.206-1.686 0-.106 0-.21.102-.316.514-.422 1.027-.738 1.541-1.054-.924-.843-1.746-1.896-1.849-2.95zm14.279 9.166c0 .106.102.106.102.211-2.362.633-4.417 1.792-6.574 2.845.103.211.205.527.308.738.411.843.616 2.002.925 3.055.719-.316 1.438-.632 2.157-1.053 2.054-1.16 3.903-2.002 6.163-2.529 0 0-1.952-2.95-2.26-3.266-.822-.633-1.438-1.686-2.054-2.845-.206.105-.308.21-.514.316.617.948 1.13 1.791 1.747 2.529z"/><path d="M96.26 66.17l-.309.316h-.102c.102 0 .102.105.205.105.72.632.925 2.107 1.438 2.845.103.105.206.21.206.316.205-.105.308-.21.513-.316-.513-.949-.924-1.897-1.54-2.74 0 0-.206-.316-.411-.527zm-11.094-3.056c.103 1.053.924 2.107 1.849 3.055.41-.21.719-.421 1.13-.527-.411-1.159-.514-2.528-.617-3.793-.821.21-1.643.527-2.465.843 0 .21.103.316.103.422z"/><path d="M92.973 62.692c-1.644-1.159-3.596-1.37-5.445-.948.103 1.264.206 2.634.617 3.793 2.568-1.054 5.444-1.054 7.807.843h.102l.308-.316c-1.027-1.16-2.054-2.318-3.39-3.372zm-10.375 6.849c-.206 0-.308.105-.514.105-.822 1.58-1.746 3.056-2.67 4.531-.103.527-.309.948-.411 1.475.821 0 1.746 0 2.568.21.205-.631.41-1.158.513-1.58 0-.105.103-.21.103-.21l1.54-.633c-.718-1.158-1.232-2.423-1.232-3.476.103-.211.103-.317.103-.422zm10.478 5.795c-.103.106-.309.106-.411.21l.102.106c.617.738.514 2.213.822 3.161.103.211.103.316.206.527.205-.105.41-.105.513-.21-.308-1.054-.513-2.108-.924-3.056-.103-.211-.206-.527-.308-.738z"/><path d="M82.598 69.962c-.103 1.054.513 2.318 1.233 3.477l1.232-.316c-.103-1.264.103-2.634.206-3.898-.822 0-1.747.105-2.569.421-.102 0-.102.105-.102.316z"/><path d="M85.165 69.12c-.205 1.264-.308 2.633-.205 3.898 2.774-.527 5.752.105 7.602 2.529.102-.106.308-.106.41-.211-.719-1.475-1.438-2.95-2.568-4.11-1.335-1.58-3.287-2.107-5.239-2.107zM78.9 76.074c0-.106.102-.316.102-.422-.205 0-.513 0-.719.106-1.027 1.264-2.157 2.423-3.287 3.477-.308.527-.513 1.053-.822 1.58.822.211 1.644.422 2.466.843.308-.527.616-1.053.822-1.475l.205-.21c.514-.106 1.13-.211 1.644-.317-.411-1.37-.72-2.634-.411-3.582z"/><path d="M79.002 75.652c0 .105-.102.316-.102.421-.308.949 0 2.319.41 3.583.412 0 .822-.105 1.233 0 .103-1.264.617-2.529 1.028-3.688a5.412 5.412 0 00-2.569-.316zm8.938 7.903c-.103 0-.309.105-.412.105 0 0 0 .105.103.105.41.843.103 2.319.206 3.267 0 .21.102.316.102.527.206 0 .411 0 .617-.106-.103-1.053-.103-2.213-.309-3.16a1.153 1.153 0 01-.308-.738z"/><path d="M97.287 85.873s-1.335-3.267-1.644-3.583c-.719-.843-1.027-1.896-1.335-3.055-.205.105-.41.105-.514.21.309.949.72 1.792 1.13 2.635 0 .105.103.105.103.21-2.465.106-4.622.843-7.088 1.37.103.21.103.527.206.737.205.949.205 2.108.308 3.161.822-.105 1.54-.316 2.363-.526 2.157-.738 4.108-1.16 6.471-1.16zm-8.937 4.53c0 .106 0 .106.103.211-2.569-.422-4.828-.21-7.397-.105v.843c0 .948-.205 2.001-.41 3.055.924.106 1.849 0 2.67 0 2.26-.21 4.315-.21 6.677.316 0 0-.616-3.477-.821-3.898-.514-.949-.617-2.108-.72-3.267-.205 0-.41.106-.616.106.103.843.308 1.79.514 2.74zm-6.78-14.54c-.41 1.16-.821 2.529-1.027 3.688 2.876.105 5.547 1.37 6.883 4.11.102 0 .308-.106.41-.106-.41-1.58-.821-3.161-1.643-4.636-1.027-1.792-2.773-2.74-4.623-3.056zm-7.703 5.268c.102-.105.102-.316.205-.421-.308-.105-.616-.105-.822-.105-1.233 1.053-2.568 1.896-4.006 2.739-.41.421-.72.843-1.13 1.264.822.316 1.644.738 2.26 1.265l1.027-1.054.206-.21c.616 0 1.232 0 1.849.105 0-1.265 0-2.634.41-3.583zm6.06 16.121v.211c-2.26-.948-4.417-1.264-6.78-1.791 0 .21-.103.316-.103.527-.205 1.053-.719 2.107-1.027 3.266.72.21 1.438.316 2.157.421 2.26.316 4.315.843 6.37 1.792 0 0 .205-3.583 0-4.004-.309-1.054-.206-2.213 0-3.477-.206 0-.412 0-.617-.106v3.161z"/><path d="M73.867 81.131c-.514.948-.514 2.213-.309 3.583.411.105.822.105 1.233.21.41-1.159 1.13-2.423 1.746-3.371-.822-.422-1.643-.633-2.465-.843 0 .21-.103.316-.206.421zm7.087 9.378h-.513v.21c.205.949-.411 2.213-.514 3.267v.421c.205 0 .41 0 .616.106.206-1.054.411-2.108.411-3.056.103-.421.103-.737 0-.948z"/><path d="M76.537 81.553c-.616 1.053-1.335 2.318-1.746 3.371 2.67.738 4.93 2.53 5.65 5.48h.513c0-1.686-.102-3.267-.616-4.847-.514-1.792-2.054-3.161-3.8-4.004zm-8.321 3.055c-.205-.105-.513-.21-.719-.316-1.335.632-2.773 1.265-4.211 1.686-.514.422-1.028.843-1.541 1.16.719.526 1.335 1.053 1.952 1.79.513-.316 1.027-.632 1.335-.948.103 0 .205-.105.205-.105.514.105 1.028.21 1.541.421.103-1.37.411-2.634 1.027-3.372.206-.105.309-.21.411-.316zm2.671 17.386v.21c-2.157-1.475-4.417-2.212-6.677-3.266-.102.21-.205.527-.308.737-.41.843-1.027 1.792-1.54 2.635.821.421 1.643.737 2.465 1.053 2.157.843 4.006 1.686 5.957 3.056 0 0 .822-3.477.822-3.899-.102-.948.206-2.002.617-3.16-.206 0-.308-.106-.514-.211-.514 1.159-.719 2.002-.822 2.845z"/><path d="M67.908 84.924c-.616.738-.924 2.002-1.027 3.372.41.105.822.316 1.233.527.616-1.054 1.643-2.107 2.465-2.95-.72-.527-1.54-.949-2.26-1.265a1.43 1.43 0 00-.41.316zm5.239 10.853c-.103 0-.308-.105-.41-.105 0 .948-.822 2.107-1.13 2.95-.103.21-.103.527-.206.738.205.105.308.105.514.21.41-1.159.821-2.212 1.027-3.266.103-.21.205-.316.205-.527z"/><path d="M73.455 90.614c-.205-2.002-1.438-3.582-2.979-4.741-.822.843-1.849 1.896-2.465 2.95 2.67 1.264 4.622 3.582 4.725 6.743v.105c.103 0 .308.106.411.106.308-1.686.514-3.372.308-5.163zm-11.197 11.801c-.205-.106-.308-.211-.513-.316-.411.843-.925 1.791-1.233 2.634 0 .105-.103.105-.103.21-1.335-1.475-2.773-2.528-4.314-3.582v4.847c1.027.843 2.055 1.686 2.98 2.739h.204c.309-.632 1.439-3.055 1.541-3.477.103-.948.72-2.002 1.438-3.055zm-.616-15.172c-.308-.211-.514-.422-.822-.527-1.438.316-2.876.632-4.314.737-.616.316-1.233.527-1.746.843a9.968 9.968 0 011.54 2.108c.514-.211 1.028-.422 1.439-.633.102 0 .205 0 .308-.105.513.21 1.13.527 1.643.843.309-1.264.925-2.529 1.644-3.161.103.105.205 0 .308-.105zm-6.985 13.17c-.103.211-.206.316-.308.527-.617.843-1.438 1.581-2.26 2.424a24.05 24.05 0 001.952 1.475c.719.421 1.335.948 1.951 1.475v-4.847c-.41-.316-.822-.632-1.335-1.054z"/><path d="M64.108 99.043c-.103 0-.206-.105-.309-.105h-.102v.21c-.206.949-1.336 1.897-1.747 2.74-.102.106-.102.316-.205.422.205.105.308.21.514.316.616-.949 1.232-1.791 1.54-2.634.103-.422.206-.738.309-.949zm-.514-10.009c-.616-.632-1.233-1.265-1.952-1.791l-.308.316c-.822.632-1.335 1.896-1.643 3.16.308.212.719.528 1.027.738.822-.948 1.952-1.686 2.876-2.423z"/><path d="M63.594 89.034c-1.027.737-2.157 1.475-2.979 2.423 2.157 1.791 3.493 4.425 2.979 7.376h.103c.102.105.205.105.308.105.616-1.475 1.13-3.056 1.335-4.636.308-2.002-.41-3.793-1.746-5.268zm-9.244-.527c.205-.106.307-.106.513-.211-.206-.21-.411-.421-.72-.632h-.718c-1.233 0-2.568-.106-3.698-.21-.617.105-1.336.315-1.952.42.41.738.822 1.581 1.13 2.424a48.04 48.04 0 001.643-.316h.309c.513.316.924.737 1.335 1.159.514-1.16 1.233-2.213 2.157-2.634zm-2.672 15.383v-.843c-.616.738-1.13 1.37-1.643 2.107 0 .106-.103.106-.103.211-1.335-2.213-2.979-3.793-4.623-5.584-.205.21-.41.316-.513.527-.72.632-1.644 1.264-2.568 1.791.513.632 1.027 1.264 1.54 1.791a21.546 21.546 0 014.007 5.163h.205c.514-.527 2.055-2.634 2.157-3.056.309-.737.925-1.475 1.541-2.107zm0-.843v.843c.103-.21.308-.316.411-.527-.103-.105-.308-.21-.41-.316z"/><path d="M52.91 92.09c1.028-.633 2.26-1.16 3.39-1.687a10.004 10.004 0 00-1.54-2.107c-.206.105-.308.105-.514.21-.924.422-1.643 1.476-2.26 2.635l.925.948zm1.439 8.85c.103-.211.205-.316.308-.527-.103-.105-.205-.211-.308-.211-.411.949-1.644 1.581-2.26 2.318-.103.211-.308.317-.41.527l.41.422c.822-.843 1.644-1.686 2.26-2.529z"/><path d="M54.246 94.302h1.85v3.899c.41-.738.719-1.475 1.027-2.213.616-1.897.205-3.793-.72-5.584-1.13.421-2.362.948-3.39 1.685.412.738.925 1.37 1.233 2.213z"/><path d="M56.095 94.302h-1.849a7.353 7.353 0 01.103 5.9c.103.106.205.211.308.211.514-.738 1.027-1.475 1.438-2.213v-3.898zm-12.737-8.324h-2.363c.308.843.41 1.686.514 2.634.616 0 1.13.105 1.643.105h.308c.411.422.72.843 1.027 1.37.822-1.054 1.85-1.897 2.877-2.213.102 0 .205-.105.41-.105-.205-.316-.308-.527-.513-.843a21.278 21.278 0 01-3.904-.948zm-3.698 17.491c-.103 0-.103.105-.206.21-.822-2.528-2.157-4.53-3.39-6.743-.205.105-.41.316-.719.421-.822.422-1.849.843-2.876 1.16.41.842.822 1.685 1.335 2.423 1.233 2.002 2.26 3.793 2.98 6.111 0 0 2.67-2.213 2.876-2.634.513-.948 1.54-1.581 2.465-2.213-.103-.105-.206-.316-.308-.527-.72.527-1.438 1.159-2.157 1.792zm5.238-4.004c-.514.843-1.952 1.159-2.67 1.791-.103.105-.309.211-.412.316.103.211.206.316.309.527.924-.632 1.849-1.159 2.568-1.791.205-.211.41-.316.513-.527l-.308-.316z"/><path d="M47.26 87.98c-1.026.21-1.95 1.16-2.875 2.213.205.316.41.737.616 1.053 1.13-.421 2.465-.737 3.698-.948-.308-.843-.616-1.686-1.13-2.423 0 0-.103 0-.308.105z"/><path d="M48.391 95.988c1.027-1.792 1.027-3.794.41-5.69-1.232.21-2.567.421-3.697.948 1.335 2.634 1.643 5.585-.103 8.219l.308.316c1.13-1.16 2.26-2.318 3.082-3.793zm-18.696 3.266c-.102 0-.102.105-.205.105-.308-2.528-1.13-4.741-1.85-7.06-.204.106-.41.106-.718.211-.925.317-2.055.422-3.082.527.206.843.411 1.58.72 2.318.821 2.213 1.335 4.215 1.54 6.638 0 .106 3.082-1.58 3.39-1.896.719-.738 1.849-1.264 2.979-1.686-.103-.21-.206-.316-.206-.527-.924.422-1.746.843-2.568 1.37zm11.3-13.17a5.22 5.22 0 00-.411-1.16c-1.233-.526-2.363-1.158-3.595-1.896-.72-.21-1.541-.316-2.26-.527.102.843.102 1.791 0 2.634.616.211 1.13.316 1.54.422.103 0 .206.105.309.105.308.527.616 1.16.822 1.686 1.027-.843 2.157-1.475 3.184-1.475.103.21.205.21.41.21z"/><path d="M40.481 86.083c-1.027 0-2.157.632-3.184 1.475.103.422.308.843.41 1.265 1.13-.211 2.569-.211 3.801-.106-.102-.843-.205-1.79-.513-2.634h-.514zm-4.417 10.853c-.102-.106-.102-.21-.205-.316v-.106l-.103.106c-.719.632-2.157.737-2.979 1.159-.103.105-.308.105-.41.21.102.211.102.422.205.527 1.027-.421 2.054-.737 2.876-1.159.103-.21.308-.316.616-.421z"/><path d="M41.508 88.612c-1.232-.105-2.568-.105-3.8.106.616 2.74.205 5.69-1.952 7.797v.105c.103.105.103.21.206.316 1.438-.843 2.773-1.686 3.8-2.95 1.438-1.475 1.85-3.372 1.746-5.374zM27.95 76.073c-.104.317-.104.527-.206.843 0 .211-.103.317-.103.527.514 0 1.027.106 1.438.316.822.422 1.746.843 2.568 1.265a12.587 12.587 0 01-1.643-1.686c-.617-.422-1.336-.843-1.85-1.16-.102 0-.205-.105-.205-.105z"/><path d="M34.318 82.501c.103 0 .308.105.411.105 0-.421-.103-.737-.205-1.158a33.583 33.583 0 01-2.98-2.424c-.821-.421-1.746-.843-2.567-1.264-.411-.211-.925-.316-1.439-.316-.205.737-.513 1.37-.821 2.001 1.335.527 2.67 1.37 3.492 1.792.103.105.206.105.206.21.205.527.308 1.16.41 1.686 1.233-.526 2.569-.948 3.493-.632zM21.066 93.248c-.102 0-.102 0-.205.106.308-2.74-.206-5.163-.41-8.008-.104-.738 0-1.475.102-2.108-1.027 0-1.952.106-2.876 0h-.617c-.513 1.581-.41 3.372-.205 5.058.308 2.318.513 4.425.205 6.849 0 .105 3.39-.843 3.698-1.16.822-.526 1.952-.842 3.185-.948 0-.21-.103-.421-.103-.632-1.027.211-1.85.527-2.774.843zm2.364-15.067c0 .105-.103.105-.103.21 0-.105.102-.21.102-.21 0-.105 0-.105 0 0zm4.52-2.108c-.103 0-.103 0 0 0-.103.317-.103.527-.206.843 0-.21.103-.526.206-.843zm-4.623 2.319c-.103.21-.206.527-.308.737.102-.316.205-.526.308-.737zm-3.082 3.582c-.616.421-1.335.632-2.054.843h.102c1.028-.21 1.952-.738 2.774-1.37v-.105c-.308.316-.514.527-.822.632zm3.081-3.794c0 .106-.102.106-.102.211a.33.33 0 00.102-.21z"/><path d="M22.916 79.13c.205-.211.308-.527.41-.738-.205.21-.307.421-.41.737zm-2.671 2.844c.308-.21.513-.316.719-.526-.206.21-.411.316-.72.526zm14.485.526c-.104 0-.31-.105-.412-.105-1.027-.21-2.26.211-3.492.738.102.422.102.843.102 1.264 1.233.106 2.568.422 3.698.738.206-.843.206-1.686.103-2.634zm-7.089 9.8c0-.105-.102-.316-.102-.422 0 0-.103 0-.103.106-.822.527-2.26.21-3.185.421-.205 0-.308.106-.513.106 0 .21.102.421.102.632 1.028-.106 2.158-.21 3.082-.527.308-.21.514-.316.72-.316z"/><path d="M34.729 85.24c-1.13-.316-2.465-.737-3.698-.737.103 2.95-.925 5.795-3.493 7.375 0 .106.103.316.103.422 1.54-.527 3.082-1.054 4.417-2.108 1.644-1.159 2.465-2.95 2.67-4.952zm-10.58-15.067c.513.422 1.027.949 1.54 1.37l-1.54-1.37c0-.105 0-.105 0 0zm3.697 5.9c.103-.316.103-.737.103-1.053-.822-1.16-1.644-2.318-2.363-3.477-.513-.422-1.027-.948-1.54-1.37-.309.843-.72 1.58-1.233 2.318l1.13 1.16.205.21c0 1.475-.205 2.95-.719 4.32 1.438-.948 3.082-2.424 4.417-2.108zM17.06 82.922c0-.105 0-.105.103-.105-.719-.105-1.438-.422-2.054-.527h-.103c-.616 0 .411.738 1.85.948h.204v-.316zm6.061-13.592c.103 0 .103.106.206.211 0-.105-.103-.105-.206-.21zm1.027.738l-.308-.316.308.316z"/><path d="M23.738 69.751c-.103-.105-.206-.21-.411-.316-.103 0-.103-.105-.206-.21-.719-.316-1.643-.527-2.568-.632.206.421.616 1.37 1.027 2.528l1.233 1.265c.514-.738.925-1.475 1.233-2.318 0-.106-.103-.211-.308-.317zm3.8 7.692c.103-.21.103-.316.103-.526 0 .21 0 .421-.103.526zm-6.985 5.69c-1.027.106-1.952.106-2.979.106h-.616.616c1.027.105 1.952 0 2.979-.106zm6.985-5.689c-.205.737-.513 1.37-.821 2.001.41-.632.616-1.264.822-2.001z"/><path d="M27.846 76.074c-1.335-.422-3.081 1.053-4.52 2.002 0 .105-.102.105-.102.21 1.232-.421 2.876-.843 4.211-.843.103-.21.103-.316.103-.526.206-.211.308-.527.308-.843z"/><path d="M23.327 78.287c-.103.21-.206.526-.308.737 1.027-.527 2.362-.21 3.698.421.308-.632.616-1.264.821-2.001-1.335 0-2.979.421-4.211.843zm-5.034 4.53c-.103 0-.103 0 0 0-.103 0-.103 0 0 0-.41.106-.719 0-1.13 0 0 0 0 .106-.103.106 0 .105-.102.21-.102.316h.616c1.027 0 1.952 0 2.876-.106.103-.632.308-1.159.514-1.685-.72.632-1.644 1.159-2.67 1.37zm8.423-3.371c-.821 1.475-2.054 2.634-3.595 3.16-.822.317-1.746.422-2.67.527.924-.105 1.746-.21 2.67-.526 1.644-.527 2.774-1.686 3.596-3.161z"/><path d="M26.716 79.445c-1.335-.632-2.773-.948-3.698-.421-.513.948-1.13 1.791-1.951 2.424-.206.526-.411 1.053-.514 1.685.925-.105 1.746-.21 2.67-.526 1.542-.527 2.672-1.686 3.494-3.162zm55.368-24.971c0-16.226-12.84-29.503-28.762-29.503-15.82 0-28.763 13.171-28.763 29.503 0 16.331 12.84 29.502 28.763 29.502 15.922 0 28.762-13.17 28.762-29.502zM62.772 57.74l2.465 2.529-2.465 2.529-2.465-2.53 2.465-2.528zm-3.698 1.264l-2.465-2.423 2.465-2.529 2.465 2.529-2.465 2.423zm4.93-2.423l2.466-2.529 2.466 2.529-2.569 2.423-2.362-2.423zm0-7.48l2.466-2.53 2.466 2.53-2.466 2.528-2.465-2.529zm1.13 3.687l-2.362 2.529-2.465-2.53 2.465-2.528 2.363 2.529zm-6.06-1.264L56.61 49.1l2.465-2.529 2.465 2.53-2.465 2.422zm-1.232 1.264l-2.466 2.529-2.465-2.53 2.465-2.528 2.466 2.529zm-6.061-1.264l-2.465-2.53 2.465-2.528 2.465 2.529-2.465 2.529zm-1.233 1.264l-2.465 2.529-2.465-2.53 2.465-2.528 2.465 2.529zm-6.163-1.264l-2.465-2.53 2.465-2.528 2.465 2.529-2.465 2.529zm-1.13 1.264l-2.466 2.529-2.465-2.53 2.465-2.528 2.466 2.529zm0 7.48l-2.466 2.53-2.465-2.53 2.465-2.528 2.466 2.529zm-1.233-3.687l2.465-2.529 2.466 2.529-2.568 2.423-2.363-2.423zm6.06 1.159l2.466 2.529-2.465 2.529-2.465-2.53 2.465-2.528zm1.233-1.159l2.466-2.529 2.465 2.529-2.465 2.423-2.465-2.423zm6.061 1.159l2.466 2.529-2.466 2.529-2.465-2.53 2.465-2.528zm3.698 3.793l2.465 2.529-2.465 2.529-2.465-2.634 2.465-2.424zm3.698 3.688l2.465 2.529-2.465 2.423-2.465-2.529 2.465-2.423zm1.233-1.264l2.465-2.53 2.466 2.53-2.466 2.528-2.465-2.528zm3.595-3.688l2.466-2.529 2.465 2.529-2.466 2.529-2.465-2.53zm3.698-3.688l2.465-2.529 2.466 2.529-2.466 2.423-2.465-2.423zm-1.233-1.264l-2.465-2.53 2.466-2.528 2.465 2.529-2.466 2.529zM67.6 45.307l2.466-2.529 2.465 2.529-2.466 2.529-2.465-2.53zm-1.232-1.265l-2.466-2.528 2.466-2.529 2.465 2.529-2.465 2.528zm-1.233 1.265l-2.363 2.529-2.465-2.53 2.465-2.528 2.363 2.529zm-6.06-1.265l-2.466-2.423 2.465-2.529 2.465 2.53-2.465 2.422zm-1.233 1.265l-2.466 2.529-2.362-2.53 2.465-2.528 2.363 2.529zm-6.061-1.265l-2.465-2.528 2.465-2.529 2.465 2.529-2.465 2.528zm-1.233 1.265l-2.465 2.529-2.465-2.53 2.465-2.528 2.465 2.529zm-6.163-1.265l-2.465-2.528 2.465-2.529 2.465 2.529-2.465 2.528zm-1.13 1.265l-2.466 2.529-2.465-2.53 2.465-2.528 2.466 2.529zM39.557 49.1l-2.465 2.423-2.466-2.528 2.466-2.53 2.465 2.635zm-3.698 3.688l-2.465 2.529-2.466-2.53 2.466-2.528 2.465 2.529zm1.233 1.264l2.465 2.529-2.465 2.423-2.466-2.528 2.466-2.424zm2.465 9.905l-2.465 2.528-2.466-2.528 2.466-2.53 2.465 2.53zm1.232 1.264l2.466 2.529-2.466 2.528-2.465-2.528 2.465-2.529zm1.233-1.264l2.465-2.53 2.466 2.53-2.466 2.528-2.465-2.528zm6.06 1.264l2.466 2.529-2.465 2.528-2.465-2.528 2.465-2.529zm1.233-1.264l2.466-2.53 2.465 2.53-2.465 2.528-2.465-2.528zm6.061 1.264l2.466 2.529-2.466 2.528-2.465-2.528 2.465-2.529zm3.698 3.793l2.465 2.529-2.465 2.529-2.465-2.635 2.465-2.423zm3.698 3.688l2.465 2.529-2.465 2.423-2.465-2.529 2.465-2.423zm1.233-1.264l2.465-2.53 2.466 2.53-2.466 2.528-2.465-2.528zM67.6 67.75l2.466-2.529 2.465 2.529-2.466 2.528L67.6 67.75zm3.698-3.793l2.465-2.53 2.466 2.53-2.466 2.528-2.465-2.528zm3.596-3.688l2.465-2.529 2.465 2.529-2.465 2.529-2.465-2.53zm0-7.481l2.465-2.529 2.465 2.529-2.465 2.529-2.465-2.53zm-1.13-1.264l-2.466-2.53 2.465-2.528 2.466 2.529-2.466 2.529zm-2.466-9.905l2.465-2.529 2.466 2.53-2.466 2.528-2.465-2.529zm-1.233-1.264L67.6 37.826l2.466-2.529 2.465 2.529-2.466 2.529zm-3.697-3.688l-2.466-2.529 2.466-2.529 2.465 2.53-2.465 2.528zm-1.233 1.159l-2.363 2.529-2.465-2.529 2.465-2.529 2.363 2.529zm-6.06-1.159l-2.466-2.529 2.465-2.529 2.465 2.53-2.465 2.528zm-1.233 1.159l-2.466 2.529-2.465-2.529 2.465-2.529 2.466 2.529zm-6.061-1.159l-2.465-2.529 2.465-2.529 2.465 2.53-2.465 2.528zm-1.233 1.159l-2.465 2.529-2.465-2.529 2.465-2.529 2.465 2.529zm-6.163-1.159l-2.465-2.529 2.465-2.529 2.465 2.53-2.465 2.528zm-1.13 1.159l-2.466 2.529-2.465-2.529 2.465-2.529 2.466 2.529zm-3.698 3.793l-2.465 2.423-2.466-2.528 2.466-2.529 2.465 2.634zm-3.698 3.688l-2.465 2.529-2.363-2.53 2.465-2.528 2.363 2.529zM32.263 49.1l-2.465 2.529-2.465-2.529 2.465-2.529 2.466 2.53zm0 7.481l-2.465 2.423-2.465-2.528 2.465-2.53 2.466 2.635zm1.13 1.159l2.466 2.529-2.465 2.529-2.466-2.53 2.466-2.528zm2.466 10.01l-2.465 2.528-2.466-2.528 2.466-2.529 2.465 2.529zm1.233 1.264l2.465 2.529-2.465 2.423-2.466-2.528 2.466-2.424zm3.697 3.688l2.466 2.529-2.466 2.528-2.465-2.528 2.465-2.53zm1.233-1.264l2.465-2.53 2.466 2.53-2.466 2.528-2.465-2.528zm6.06 1.264l2.466 2.529-2.465 2.528-2.465-2.528 2.465-2.53zm1.233-1.264l2.466-2.53 2.465 2.53-2.465 2.528-2.465-2.528zm6.061 1.264l2.466 2.529-2.466 2.528-2.465-2.528 2.465-2.53zm3.698 3.688l2.465 2.528-2.465 2.53-2.465-2.53 2.465-2.528zm1.541 5.9l2.157-2.213 1.027 1.054c-1.027.527-2.157.948-3.184 1.16zm4.93-1.791l-1.54-1.58 2.465-2.53 2.26 2.319c-1.13.632-2.157 1.264-3.184 1.79zm4.52-2.845L67.6 75.125l2.466-2.528 2.465 2.528-2.466 2.53zm3.698-3.688l-2.465-2.528 2.465-2.53 2.466 2.53-2.466 2.528zm3.493-3.898l-2.26-2.318 2.466-2.529 1.643 1.686-1.849 3.16zm2.466-4.847l-1.13-1.16 2.362-2.423c-.308 1.16-.719 2.424-1.232 3.583zm1.849-6.743l-.514.526-2.466-2.528 2.466-2.53.822.844c0 1.264-.103 2.529-.309 3.688zm.102-7.481l-.616.632L78.59 49.1l2.158-2.213c.41 1.265.719 2.635.924 4.11zm-4.314-3.161l-2.465-2.53 2.465-2.528 2.465 2.529-2.465 2.529zm1.335-6.322c.103.21.206.316.206.527l-.411-.316.205-.211zm-2.876-4.53a29.03 29.03 0 011.952 2.95l-.411.42-2.465-2.528.924-.843zm-3.493-3.9a28.25 28.25 0 012.466 2.53l-1.028 1.053-2.465-2.529 1.027-1.053zm-4.211-3.16a28.238 28.238 0 012.876 2.002l-.924.948-2.466-2.529.514-.421zm-1.541-.949l-.103.106-.41-.422c.102.106.308.21.513.316zm-1.438 1.475l-2.363 2.424-2.465-2.529 2.465-2.529 2.363 2.634zm-7.807-4.53c1.335.21 2.67.526 4.006.948l-2.26 2.318-2.465-2.529.719-.737zm.514 4.53l-2.466 2.53-2.465-2.53 2.465-2.528 2.466 2.528zm-7.602-4.74c.924-.105 1.952-.21 2.979-.21l1.027 1.053-2.465 2.529-2.465-2.53.924-.842zm.308 4.741l-2.465 2.53-2.465-2.53 2.465-2.528 2.465 2.528zm-3.903-4.109l.308.316-2.466 2.529-1.54-1.58a19.185 19.185 0 013.698-1.265zm-7.19 2.845a12.18 12.18 0 011.643-.843l2.054 2.107-2.465 2.53-2.465-2.53 1.232-1.264zm-2.363 2.423l2.465 2.53-2.465 2.528-2.466-2.529 2.466-2.529zm-3.698 3.794l2.465 2.528-2.465 2.53-2.466-2.53 2.466-2.528zm-4.828 4.952l1.232-1.265 2.466 2.53-2.466 2.528-2.054-2.107c.205-.633.513-1.16.822-1.686zm-1.541 3.371l1.54 1.58-2.465 2.53-.308-.316c.308-1.37.72-2.635 1.233-3.794zm-1.952 7.587L26.1 50.26l2.465 2.529-2.465 2.529-1.13-1.16c0-.948 0-1.896.103-2.844zM26.1 62.798c-.41-1.37-.719-2.635-.924-4.11l.924-.948 2.465 2.529-2.465 2.529zm3.698-1.265l2.466 2.529-2.466 2.529-2.465-2.53 2.465-2.528zm-1.54 6.533L27.64 66.8l.925.949-.309.316zm2.876 4.53c-.72-.948-1.439-1.896-2.055-2.95l.616-.632 2.466 2.529-1.027 1.053zm3.595 3.794c-.822-.738-1.746-1.58-2.465-2.424l1.13-1.159 2.465 2.529-1.13 1.054zm4.314 3.055a28.223 28.223 0 01-2.876-2.002l1.027-1.053 2.466 2.528-.617.527zm1.541.949l.205-.211.514.527a5.04 5.04 0 01-.719-.316zm1.438-1.476l2.465-2.528 2.466 2.528-2.466 2.53-2.465-2.53zm8.013 4.215c-1.438-.21-2.774-.421-4.11-.737l2.158-2.213 2.465 2.529-.513.421zm-.72-4.215l2.466-2.528 2.465 2.528-2.465 2.53-2.465-2.53zm6.061 1.265l2.466 2.529-.309.316c-1.232.21-2.568.316-3.8.316l-.72-.738 2.363-2.423zm62.147-27.184c-.513 0-1.027-.105-1.232-.105v3.687c.411.316 1.643.527 2.568.527 3.595 0 4.725-1.053 5.958-5.268l4.519-16.753h-5.238l-1.952 9.483c-.206.843-.308 2.212-.514 4.425h-.102c-.103-2.212-.103-3.688-.309-4.425l-1.951-9.483h-5.342l4.828 17.174c-.205.738-.822.738-1.233.738zm18.49-1.159l1.336-2.53 2.362 7.587h5.342l-4.622-12.117 4.622-9.588h-5.547l-3.493 8.64v-8.64h-4.93v21.705h4.93V51.84zm103.648 0l1.335-2.53 2.363 7.587h5.342l-4.623-12.117 4.623-9.588h-5.548l-3.492 8.64v-8.64h-4.931v21.705h4.931V51.84zm-87.52-3.372h2.26c2.979 0 6.163-1.265 6.163-6.638 0-5.584-3.287-6.638-6.163-6.638h-7.396v21.705h5.136v-8.43zm0-9.378h.822c1.438 0 2.568.527 2.568 2.634 0 2.108-1.233 2.74-2.466 2.74h-.924V39.09zm14.278 13.487h3.904l.719 4.32h5.033l-4.725-21.705h-6.061l-4.622 21.705h5.033l.719-4.32zm1.747-13.487l1.438 9.589h-2.671l1.233-9.589zm10.683-8.323h-3.801v3.16h3.801v-3.16zm6.574 0h-3.801v3.16h3.801v-3.16zm-2.568 4.425h-5.136v21.705h5.136V35.192zm8.013 12.538h3.287v9.167h5.136V35.192h-5.136v8.324h-3.287v-8.324h-5.136v21.705h5.136V47.73zm17.976 9.694c4.725 0 6.883-2.107 6.883-7.06v-2.001h-5.137v2.845c0 1.686-.719 2.212-1.848 2.212-1.028 0-1.747-.632-1.747-2.318V40.25c0-1.16.925-1.58 1.747-1.58.821 0 1.848.526 1.848 1.685v2.002h5.137v-1.475c0-3.372-2.158-6.217-6.883-6.217-4.828 0-6.882 2.74-6.882 6.111v9.483c0 5.058 2.26 7.165 6.882 7.165zm23.215-7.164c0-5.374-3.184-6.744-6.163-6.744h-2.26v-8.43H218.5v21.812h7.396c2.979 0 6.163-1.054 6.163-6.639zm-8.423 2.739v-5.584h.924c1.233 0 2.466.737 2.466 2.845 0 2.107-1.028 2.634-2.466 2.634h-.924v.105zM119.372 89.771l2.363-7.586 1.335 2.529v5.057h4.931v-5.057l1.336-2.53 2.362 7.587h5.342l-4.623-12.117 4.623-9.588h-5.547l-3.493 8.64v-8.64h-4.931v8.64l-3.492-8.64h-5.65l4.725 9.588-4.725 12.117h5.444zm24.757-21.705h-5.136V89.77h5.136V68.066zm11.402 8.324h-3.39v-8.324h-5.136V89.77h5.136V80.5h3.39v9.272h5.033V68.066h-5.033v8.324zM177 83.45v-9.695c0-3.371-2.055-6.11-6.883-6.11-4.828 0-6.882 2.739-6.882 6.11v9.8c0 4.32 2.157 6.848 6.882 6.848 4.828-.105 6.883-2.634 6.883-6.954zm-8.629.947V73.334c0-1.264.925-1.791 1.746-1.791.822 0 1.747.527 1.747 1.791v11.063c0 1.265-.925 1.897-1.747 1.897-.821 0-1.746-.632-1.746-1.897zm24.756 5.374V68.066h-5.136v8.43c-.616.315-1.13.42-1.952.42-.924 0-1.438-.526-1.438-1.474v-7.27h-5.136v7.796c0 3.793 2.671 5.163 4.623 5.163 2.054 0 2.773-.105 3.903-.421v9.272h5.136v-.21zm7.807-21.705h-4.828V89.77h4.931l4.417-13.276c-.205 2.318-.924 5.795-.924 8.219v5.057h4.828V68.066h-4.828l-4.315 13.697c.103-2.423.719-5.9.719-8.218v-5.48zm54.546-32.979h-4.828v21.705h4.931L260 43.516c-.205 2.318-.924 5.795-.924 8.219v5.057h4.828V35.087h-4.828l-4.315 13.697c.103-2.423.719-5.9.719-8.218v-5.48zm-34.72 54.684h4.828V68.066h-4.828l-4.315 13.697c.103-2.423.822-5.9.822-8.218V68.17h-4.828v21.705h4.931l4.417-13.276c-.205 2.319-.925 5.796-.925 8.219v4.952h-.102zm54.546-32.979h4.828V35.087h-4.828l-4.315 13.697c.103-2.423.822-5.9.822-8.218v-5.374h-4.828v21.706h4.931l4.417-13.277c-.206 2.319-.925 5.796-.925 8.219v4.952h-.102zM218.91 66.801c2.363 0 4.52-1.264 4.52-3.898h-1.849c-.411 1.37-1.232 1.58-2.465 1.58-1.13 0-2.465-.105-2.671-1.58h-1.952c.103 2.74 1.849 3.898 4.417 3.898zm54.546-32.979c2.363 0 4.52-1.264 4.52-3.898h-1.849c-.411 1.37-1.232 1.58-2.465 1.58-1.13 0-2.466-.105-2.671-1.58h-1.952c.103 2.74 1.849 3.898 4.417 3.898zm-152.748 86.611h1.541v2.318h4.93v-2.318h1.541c3.904 0 6.677-2.424 6.677-8.64 0-6.112-2.876-8.64-6.677-8.64h-1.541v-2.108h-4.93v2.108h-1.541c-3.904 0-6.677 2.528-6.677 8.64-.103 6.111 2.773 8.64 6.677 8.64zm6.471-13.487h1.13c1.747 0 2.466 1.686 2.466 4.741 0 3.161-.719 4.742-2.466 4.742h-1.027v-9.483h-.103zm-6.06 0h1.027v9.483h-1.027c-1.849 0-2.568-1.581-2.568-4.742.102-3.055.821-4.741 2.568-4.741zm16.641 9.483c0 4.32 2.157 6.848 6.882 6.848 4.828 0 6.882-2.528 6.882-6.848v-9.694c0-3.372-2.054-6.111-6.882-6.111-4.828 0-6.882 2.739-6.882 6.111v9.694zm5.136-10.116c0-1.264.924-1.791 1.746-1.791s1.746.527 1.746 1.791v11.064c0 1.264-.924 1.896-1.746 1.896-.924 0-1.746-.632-1.746-1.896v-11.064zm24.961 16.438v-21.706h-5.136v8.324h-3.39v-8.324h-5.033v21.706h5.033v-9.273h3.39v9.273h5.136zm19.312 4.425v-8.535h-1.13v-17.596h-13.456v6.217c0 6.638-.411 8.956-1.952 11.379h-.719v8.535h4.931v-4.425h7.396v4.425h4.93zm-6.266-8.535h-5.033c1.232-2.423 1.643-5.268 1.643-9.377v-4.109h3.39v13.486z"/><path d="M53.424 88.507c-18.387 0-33.282-15.278-33.282-34.033 0-18.755 14.895-34.033 33.282-34.033 18.388 0 33.18 15.278 33.18 34.033 0 18.755-14.895 34.033-33.18 34.033zm0-67.118c-17.77 0-32.255 14.857-32.255 33.085s14.484 33.085 32.255 33.085 32.153-14.857 32.153-33.085-14.382-33.085-32.153-33.085z"/></g><defs><clipPath id="clip0"><path fill="#fff" transform="translate(.111)" d="M0 0h332v163H0z"/></clipPath></defs></svg>