<?xml version="1.0" encoding="UTF-8"?>
<svg width="222px" height="114px" viewBox="0 0 222 114" version="1.1" xmlns="http://www.w3.org/2000/svg" xmlns:xlink="http://www.w3.org/1999/xlink">
    <!-- Generator: Sketch 43.1 (39012) - http://www.bohemiancoding.com/sketch -->
    <title>LOGO</title>
    <desc>Created with Sketch.</desc>
    <defs>
        <polygon id="path-1" points="0 47.5937996 123.466418 47.5937996 123.466418 0 0 0"></polygon>
        <polygon id="path-3" points="0.265875737 0.289581951 6.59618997 0.289581951 6.59618997 6.61295263 0.265875737 6.61295263 0.265875737 0.289581951"></polygon>
        <polygon id="path-5" points="9.27436582e-17 6.49881083 9.27436582e-17 0.175355611 6.3306105 0.175355611 6.3306105 6.49881083 0 6.49881083"></polygon>
        <polygon id="path-7" points="6.63914824 6.34121061 0.308834011 6.34121061 0.308834011 0.0180935876 6.63914824 0.0180935876"></polygon>
    </defs>
    <g id="Symbols" stroke="none" stroke-width="1" fill="none" fill-rule="evenodd">
        <g id="General/Navigation" transform="translate(-149.000000, -7.000000)">
            <g id="LOGO" transform="translate(149.000000, 7.000000)">
                <g id="Text" transform="translate(98.467880, 32.583333)">
                    <path d="M0.529937118,0.273733466 L3.11216925,0.273733466 L6.018938,5.81837632 L7.113394,8.28228175 L7.1817975,8.28228175 C7.07919225,7.10147817 6.87398175,5.52707341 6.87398175,4.20974537 L6.87398175,0.273733466 L9.26810426,0.273733466 L9.26810426,11.4310913 L6.68587213,11.4310913 L3.77910338,5.86933532 L2.68464738,3.43965608 L2.61624388,3.43965608 C2.71884913,4.67141865 2.92405963,6.16025794 2.92405963,7.47796627 L2.92405963,11.4310913 L0.529937118,11.4310913 L0.529937118,0.273733466 Z" id="Fill-1" fill="#000000"></path>
                    <polygon id="Fill-3" fill="#000000" points="13.8343419 0.205243056 20.2984727 0.205243056 20.2984727 1.40315972 15.2537146 1.40315972 15.2537146 4.92845734 19.5114524 4.92845734 19.5114524 6.1434871 15.2537146 6.1434871 15.2537146 10.2160235 20.4691014 10.2160235 20.4691014 11.4310532 13.8343419 11.4310532"></polygon>
                    <polygon id="Fill-5" fill="#000000" points="26.8823096 1.40312169 23.4963363 1.40312169 23.4963363 0.205205026 31.7043764 0.205205026 31.7043764 1.40312169 28.3184031 1.40312169 28.3184031 11.4310152 26.8823096 11.4310152"></polygon>
                    <polygon id="Fill-7" fill="#000000" points="35.4323671 0.205243056 36.8517398 0.205243056 36.8517398 4.91134425 42.0671266 4.91134425 42.0671266 0.205243056 43.5036001 0.205243056 43.5036001 11.4310532 42.0671266 11.4310532 42.0671266 6.1434871 36.8517398 6.1434871 36.8517398 11.4310532 35.4323671 11.4310532"></polygon>
                    <polygon id="Fill-9" fill="#000000" points="48.2921492 0.205243056 54.75628 0.205243056 54.75628 1.40315972 49.7115218 1.40315972 49.7115218 4.92845734 53.9692597 4.92845734 53.9692597 6.1434871 49.7115218 6.1434871 49.7115218 10.2160235 54.9269087 10.2160235 54.9269087 11.4310532 48.2921492 11.4310532"></polygon>
                    <path d="M62.3146387,5.52726356 C64.058928,5.52726356 65.0336779,4.80851356 65.0336779,3.35390046 C65.0336779,1.88255456 64.058928,1.35204861 62.3146387,1.35204861 L60.4339225,1.35204861 L60.4339225,5.52726356 L62.3146387,5.52726356 Z M59.0141698,0.205090939 L62.5198492,0.205090939 C64.8113665,0.205090939 66.4530505,1.0268998 66.4530505,3.35390046 C66.4530505,5.09943618 65.4608197,6.16044808 63.921741,6.53693618 L66.7779671,11.4309011 L65.1704849,11.4309011 L62.4685466,6.69095403 L60.4339225,6.69095403 L60.4339225,11.4309011 L59.0141698,11.4309011 L59.0141698,0.205090939 Z" id="Fill-11" fill="#000000"></path>
                    <polygon id="Fill-13" fill="#000000" points="70.4546553 0.205243056 71.8740279 0.205243056 71.8740279 10.2160235 76.781599 10.2160235 76.781599 11.4310532 70.4546553 11.4310532"></polygon>
                    <path d="M81.9286964,6.86200893 L85.2975688,6.86200893 L84.7674417,5.1506994 C84.3574007,3.90144345 83.9979023,2.66968089 83.6387839,1.36908565 L83.5703804,1.36908565 C83.2283629,2.66968089 82.8696246,3.90144345 82.4592036,5.1506994 L81.9286964,6.86200893 Z M82.8354228,0.205395172 L84.442525,0.205395172 L88.2385393,11.4312054 L86.7169414,11.4312054 L85.6566872,8.00858631 L81.5699581,8.00858631 L80.4926029,11.4312054 L79.0390285,11.4312054 L82.8354228,0.205395172 Z" id="Fill-15" fill="#000000"></path>
                    <path d="M91.5394262,0.205243056 L93.0101015,0.205243056 L97.0626288,7.25583829 L98.276791,9.58283896 L98.3451945,9.58283896 C98.276791,8.45337467 98.1741857,7.18700562 98.1741857,6.00620205 L98.1741857,0.205243056 L99.5255349,0.205243056 L99.5255349,11.4310532 L98.0548596,11.4310532 L93.9848513,4.3637252 L92.7706892,2.05345734 L92.7022857,2.05345734 C92.7877901,3.18292163 92.8903953,4.38083829 92.8903953,5.56126157 L92.8903953,11.4310532 L91.5394262,11.4310532 L91.5394262,0.205243056 Z" id="Fill-17" fill="#000000"></path>
                    <path d="M107.015566,10.2673628 C109.632,10.2673628 110.948767,8.60739253 110.948767,5.76699901 C110.948767,2.94333829 109.632,1.36893353 107.015566,1.36893353 L105.733381,1.36893353 L105.733381,10.2673628 L107.015566,10.2673628 Z M104.314008,0.205243056 L107.118551,0.205243056 C110.572548,0.205243056 112.419443,2.2074752 112.419443,5.76699901 C112.419443,9.34325562 110.572548,11.4310532 107.186575,11.4310532 L104.314008,11.4310532 L104.314008,0.205243056 Z" id="Fill-19" fill="#000000"></path>
                    <path d="M115.719646,9.97655423 L116.574689,8.98399471 C117.37843,9.82253638 118.507088,10.3872685 119.669948,10.3872685 C121.140623,10.3872685 122.012768,9.65140542 122.012768,8.55616733 C122.012768,7.40958995 121.208646,7.05021495 120.148772,6.57104828 L118.54129,5.86941138 C117.481036,5.4244709 116.266874,4.62053571 116.266874,2.97767857 C116.266874,1.26636905 117.75465,0 119.789654,0 C121.123522,0 122.303102,0.564732143 123.106844,1.38616071 L122.337684,2.31026786 C121.653269,1.65997024 120.832807,1.24925595 119.789654,1.24925595 C118.54129,1.24925595 117.703347,1.88244048 117.703347,2.8921131 C117.703347,3.9702381 118.678097,4.38095238 119.567342,4.75706019 L121.157724,5.44158399 C122.45701,6.00631614 123.466342,6.77640542 123.466342,8.43637566 C123.466342,10.2161376 122.012768,11.6365245 119.652847,11.6365245 C118.079566,11.6365245 116.694395,10.9862269 115.719646,9.97655423" id="Fill-21" fill="#000000"></path>
                    <polygon id="Fill-23" fill="#000000" points="0.529937118 18.252333 3.04376575 18.252333 3.04376575 22.5473396 6.89108263 22.5473396 6.89108263 18.252333 9.42201214 18.252333 9.42201214 29.4096908 6.89108263 29.4096908 6.89108263 24.7553092 3.04376575 24.7553092 3.04376575 29.4096908 0.529937118 29.4096908"></polygon>
                    <polygon id="Fill-25" fill="#000000" points="13.9883638 18.1839947 20.4524946 18.1839947 20.4524946 19.3815311 15.4077364 19.3815311 15.4077364 22.9068287 19.6654743 22.9068287 19.6654743 24.1218585 15.4077364 24.1218585 15.4077364 28.1943948 20.6231233 28.1943948 20.6231233 29.4098049 13.9883638 29.4098049"></polygon>
                    <polygon id="Fill-27" fill="#000000" points="24.7105365 18.1839947 26.1299091 18.1839947 26.1299091 28.1943948 31.0374802 28.1943948 31.0374802 29.4098049 24.7105365 29.4098049"></polygon>
                    <path d="M33.534474,27.9549636 L34.3895178,26.9627844 C35.1932589,27.8013261 36.3219166,28.3656779 37.4847762,28.3656779 C38.9554514,28.3656779 39.827596,27.6301951 39.827596,26.534957 C39.827596,25.3883796 39.0234749,25.0290046 37.9636007,24.549838 L36.3561184,23.8482011 C35.2958641,23.4032606 34.081702,22.5989451 34.081702,20.956088 C34.081702,19.2447784 35.5694781,17.9787897 37.6044823,17.9787897 C38.9383505,17.9787897 40.1179309,18.5431415 40.921672,19.3645701 L40.1525127,20.2886772 C39.4680976,19.6383796 38.6476357,19.2276653 37.6044823,19.2276653 C36.3561184,19.2276653 35.5181755,19.8608499 35.5181755,20.8705225 C35.5181755,21.9486475 36.4929254,22.3593618 37.3821709,22.7358499 L38.9725523,23.4203737 C40.2718388,23.9851058 41.2811704,24.7551951 41.2811704,26.4147851 C41.2811704,28.194547 39.827596,29.6149339 37.4676753,29.6149339 C35.8943948,29.6149339 34.5092239,28.9646362 33.534474,27.9549636" id="Fill-29" fill="#000000"></path>
                    <mask id="mask-2" fill="white">
                        <use xlink:href="#path-1"></use>
                    </mask>
                    <g id="Clip-32"></g>
                    <polygon id="Fill-31" fill="#000000" mask="url(#mask-2)" points="45.1972328 29.4098049 46.6166054 29.4098049 46.6166054 18.1839947 45.1972328 18.1839947"></polygon>
                    <path d="M51.4046985,18.1839947 L52.8753737,18.1839947 L56.9279011,25.2342097 L58.1420632,27.5615906 L58.2104667,27.5615906 C58.1420632,26.431746 58.039458,25.1657573 58.039458,23.9849537 L58.039458,18.1839947 L59.3908071,18.1839947 L59.3908071,29.4098049 L57.9201319,29.4098049 L53.8501236,22.3420966 L52.6359615,20.0318287 L52.567558,20.0318287 C52.6530623,21.1616733 52.7556676,22.3592097 52.7556676,23.5400132 L52.7556676,29.4098049 L51.4046985,29.4098049 L51.4046985,18.1839947 Z" id="Fill-33" fill="#000000" mask="url(#mask-2)"></path>
                    <polygon id="Fill-34" fill="#000000" mask="url(#mask-2)" points="64.1787481 18.1839947 65.5981208 18.1839947 65.5981208 23.8138228 65.6494234 23.8138228 70.3175823 18.1839947 71.9250645 18.1839947 68.4193851 22.4622685 72.4722925 29.4098049 70.8822912 29.4098049 67.5301396 23.5742394 65.5981208 25.8502811 65.5981208 29.4098049 64.1787481 29.4098049"></polygon>
                    <polygon id="Fill-35" fill="#000000" mask="url(#mask-2)" points="75.7899383 29.4098049 77.2093109 29.4098049 77.2093109 18.1839947 75.7899383 18.1839947"></polygon>
                    <path d="M0,41.878292 C0,38.1818634 2.44542514,36.0256134 5.2666895,36.0256134 C6.70316301,36.0256134 7.86602252,36.7101372 8.61846102,37.4806068 L7.28459276,39.0888575 C6.72026389,38.5754646 6.12173326,38.1989765 5.31799213,38.1989765 C3.79601425,38.1989765 2.58185212,39.550911 2.58185212,41.7923462 C2.58185212,44.0858813 3.64210637,45.4203224 5.28379038,45.4203224 C6.19013676,45.4203224 6.90837351,44.9586491 7.45560151,44.3764236 L8.78946977,45.9508284 C7.86602252,47.0289534 6.63475951,47.5936855 5.18118513,47.5936855 C2.35954074,47.5936855 0,45.6256796 0,41.878292" id="Fill-36" fill="#000000" mask="url(#mask-2)"></path>
                    <path d="M19.8704948,41.7241601 C19.8704948,38.9347255 18.5537274,37.2066832 16.5533051,37.2066832 C14.5525027,37.2066832 13.2357353,38.9347255 13.2357353,41.7241601 C13.2357353,44.5307077 14.5525027,46.3443155 16.5533051,46.3443155 C18.5537274,46.3443155 19.8704948,44.5307077 19.8704948,41.7241601 M11.76506,41.7241601 C11.76506,38.1307903 13.7316607,35.9574272 16.5533051,35.9574272 C19.3745694,35.9574272 21.3582709,38.1479034 21.3582709,41.7241601 C21.3582709,45.3350231 19.3745694,47.5939517 16.5533051,47.5939517 C13.7316607,47.5939517 11.76506,45.3350231 11.76506,41.7241601" id="Fill-37" fill="#000000" mask="url(#mask-2)"></path>
                    <path d="M25.4795058,36.1627844 L27.1895933,36.1627844 L29.3443036,42.1519874 C29.6179176,42.9220767 29.8740507,43.7263922 30.1476647,44.4964815 L30.2164482,44.4964815 C30.4900622,43.7263922 30.7123736,42.9220767 30.9856076,42.1519874 L33.1061161,36.1627844 L34.8333045,36.1627844 L34.8333045,47.3885946 L33.4994362,47.3885946 L33.4994362,41.2107672 C33.4994362,40.2182077 33.6191423,38.8833862 33.6879259,37.891207 L33.6191423,37.891207 L32.7298968,40.4406779 L30.6093883,46.2591303 L29.6688402,46.2591303 L27.5483317,40.4406779 L26.6590862,37.891207 L26.5910627,37.891207 C26.6590862,38.8833862 26.7620715,40.2182077 26.7620715,41.2107672 L26.7620715,47.3885946 L25.4795058,47.3885946 L25.4795058,36.1627844 Z" id="Fill-38" fill="#000000" mask="url(#mask-2)"></path>
                    <path d="M39.6218535,36.1627844 L41.331941,36.1627844 L43.4866513,42.1519874 C43.7602653,42.9220767 44.0163984,43.7263922 44.2900124,44.4964815 L44.3587959,44.4964815 C44.6324099,43.7263922 44.8547213,42.9220767 45.1279553,42.1519874 L47.2484638,36.1627844 L48.9756522,36.1627844 L48.9756522,47.3885946 L47.6417839,47.3885946 L47.6417839,41.2107672 C47.6417839,40.2182077 47.76149,38.8833862 47.8302735,37.891207 L47.76149,37.891207 L46.8722445,40.4406779 L44.751736,46.2591303 L43.8111879,46.2591303 L41.6906794,40.4406779 L40.8014339,37.891207 L40.7334104,37.891207 C40.8014339,38.8833862 40.9044191,40.2182077 40.9044191,41.2107672 L40.9044191,47.3885946 L39.6218535,47.3885946 L39.6218535,36.1627844 Z" id="Fill-39" fill="#000000" mask="url(#mask-2)"></path>
                    <polygon id="Fill-40" fill="#000000" mask="url(#mask-2)" points="53.7643912 47.3884425 55.1837638 47.3884425 55.1837638 36.1626323 53.7643912 36.1626323"></polygon>
                    <polygon id="Fill-41" fill="#000000" mask="url(#mask-2)" points="62.2971958 37.3604729 58.9112226 37.3604729 58.9112226 36.1629365 67.1192626 36.1629365 67.1192626 37.3604729 63.7332893 37.3604729 63.7332893 47.3883664 62.2971958 47.3883664"></polygon>
                    <polygon id="Fill-42" fill="#000000" mask="url(#mask-2)" points="73.1734284 37.3604729 69.7874551 37.3604729 69.7874551 36.1629365 77.9954951 36.1629365 77.9954951 37.3604729 74.6095219 37.3604729 74.6095219 47.3883664 73.1734284 47.3883664"></polygon>
                    <polygon id="Fill-43" fill="#000000" mask="url(#mask-2)" points="81.7234859 36.1627844 88.1876167 36.1627844 88.1876167 37.3603208 83.1428585 37.3603208 83.1428585 40.8856184 87.4005964 40.8856184 87.4005964 42.1006481 83.1428585 42.1006481 83.1428585 46.1731845 88.3582454 46.1731845 88.3582454 47.3885946 81.7234859 47.3885946"></polygon>
                    <polygon id="Fill-44" fill="#000000" mask="url(#mask-2)" points="92.4456586 36.1627844 98.9097894 36.1627844 98.9097894 37.3603208 93.8650312 37.3603208 93.8650312 40.8856184 98.1227691 40.8856184 98.1227691 42.1006481 93.8650312 42.1006481 93.8650312 46.1731845 99.0804181 46.1731845 99.0804181 47.3885946 92.4456586 47.3885946"></polygon>
                </g>
                <g id="Embleem">
                    <path d="M18.2549807,19.8826968 C31.2233005,32.2670811 62.7347811,31.3281592 82.8358672,10.3256469 C60.8132977,40.9520032 83.135517,66.5958589 57.647929,110.690947 C6.03324613,84.6649272 42.0652915,52.4892018 9.91430393,31.1117125 C35.8238564,44.8636846 64.1551551,23.1425018 94.0773913,18.6567294 C65.9090378,31.7542885 48.4421615,67.0186063 71.494883,108.641467 C51.7052973,90.8412663 26.5169359,39.287224 29.2209794,11.1927018 C57.647929,47.2767266 28.0249195,70.0695741 6.33035656,73.2004411" id="Stroke-1" stroke="#808184" stroke-width="0.5"></path>
                    <path d="M95.3050668,94.392302 C75.9035869,81.4659555 32.310039,78.1414701 10.7822303,84.6648849 C28.6837682,76.9975158 27.4259161,47.5324465 3.16528409,58.0047445" id="Stroke-3" stroke="#808184" stroke-width="0.5"></path>
                    <path d="M4.76726793,44.1144917 C26.0521401,45.7678567 55.2557245,47.604694 19.4826985,95.6186498" id="Stroke-5" stroke="#808184" stroke-width="0.5"></path>
                    <path d="M95.3050668,94.392302 C72.6497622,71.7630578 53.8357314,45.9733542 69.817902,5.1845738" id="Stroke-7" stroke="#808184" stroke-width="0.5"></path>
                    <path d="M30.724265,103.949563 C29.060108,81.4420703 73.7388285,58.0045331 55.9122031,3.58426361 C55.4826204,10.1782772 47.0691473,17.9830392 42.0652492,5.63374288 C54.9861667,61.3412781 38.3048131,94.6203742 43.7421031,109.090171 C43.7421031,92.4356157 67.1786981,71.3515132 84.3391528,103.082086 C69.2948692,74.998132 74.6610559,47.2768957 94.077349,18.6564757" id="Stroke-9" stroke="#808184" stroke-width="0.5"></path>
                    <g id="Group-13" transform="translate(52.481043, 0.133165)">
                        <mask id="mask-4" fill="white">
                            <use xlink:href="#path-3"></use>
                        </mask>
                        <g id="Clip-12"></g>
                        <path d="M6.59618997,3.45122501 C6.59618997,5.19717167 5.17877857,6.61295263 3.43082124,6.61295263 C1.68286391,6.61295263 0.265875737,5.19717167 0.265875737,3.45122501 C0.265875737,1.70527836 1.68286391,0.289497402 3.43082124,0.289497402 C5.17877857,0.289497402 6.59618997,1.70527836 6.59618997,3.45122501" id="Fill-11" fill="#EE4036" mask="url(#mask-4)"></path>
                    </g>
                    <path d="M45.1224815,4.81530397 C45.5744957,6.50206599 44.5727003,8.23533022 42.884419,8.68724717 C41.1957145,9.13958686 39.4600309,8.13852108 39.0075935,6.45175905 C38.5551562,4.76499703 39.5573748,3.03173279 41.2460793,2.57981585 C42.9343606,2.12789891 44.6700442,3.12854194 45.1224815,4.81530397" id="Fill-14" fill="#EE4036"></path>
                    <path d="M31.9621404,9.61188022 C32.8361191,11.1240476 32.3176572,13.0576941 30.8037484,13.9306674 C29.2898396,14.8036407 27.353543,14.2857752 26.4799876,12.7736078 C25.6055857,11.2610177 26.1244708,9.32779399 27.6383796,8.45482066 C29.1518652,7.58142459 31.0881618,8.09971287 31.9621404,9.61188022" id="Fill-16" fill="#EE4036"></path>
                    <path d="M20.4930856,17.6471664 C21.7289295,18.8820115 21.7289295,20.8837203 20.4930856,22.1185654 C19.2568184,23.3529877 17.2528044,23.3529877 16.0169605,22.1185654 C14.7806933,20.8837203 14.7806933,18.8820115 16.0169605,17.6471664 C17.2528044,16.4127441 19.2568184,16.4127441 20.4930856,17.6471664" id="Fill-18" fill="#EE4036"></path>
                    <path d="M11.4968613,28.3737469 C13.0107701,29.2467202 13.5296553,31.1803667 12.6552534,32.6925341 C11.7812747,34.2047014 9.84582464,34.7229897 8.3314926,33.8500164 C6.81758379,32.9766203 6.29912187,31.0429738 7.17310054,29.5308065 C8.0470792,28.0190618 9.98295252,27.5007736 11.4968613,28.3737469" id="Fill-20" fill="#EE4036"></path>
                    <path d="M5.58643777,41.0605224 C7.27514231,41.5124394 8.27693771,43.2461263 7.82492356,44.9328884 C7.37248618,46.6192276 5.63680264,47.6202934 3.9480981,47.1683765 C2.2598168,46.7164595 1.25759816,44.9827726 1.71003554,43.2960105 C2.16247293,41.6096713 3.89815646,40.6086055 5.58643777,41.0605224" id="Fill-22" fill="#EE4036"></path>
                    <g id="Group-26" transform="translate(0.000000, 54.667577)">
                        <mask id="mask-6" fill="white">
                            <use xlink:href="#path-5"></use>
                        </mask>
                        <g id="Clip-25"></g>
                        <path d="M3.16524176,0.175355611 C4.91319909,0.175355611 6.3306105,1.59071382 6.3306105,3.33708322 C6.3306105,5.08302988 4.91319909,6.49881083 3.16524176,6.49881083 C1.4168612,6.49881083 -0.000126970266,5.08302988 -0.000126970266,3.33708322 C-0.000126970266,1.59071382 1.4168612,0.175355611 3.16524176,0.175355611" id="Fill-24" fill="#EE4036" mask="url(#mask-6)"></path>
                    </g>
                    <path d="M4.39736123,68.7818433 C6.08606576,68.3299263 7.8217493,69.3305694 8.27418668,71.0173314 C8.72662407,72.7036707 7.72440543,74.4373577 6.03612413,74.8892746 C4.34741959,75.3416143 2.61173605,74.3401258 2.15929867,72.6537865 C1.70728452,70.9674472 2.70907992,69.2333375 4.39736123,68.7818433" id="Fill-27" fill="#EE4036"></path>
                    <path d="M9.19967295,81.9270461 C10.7135818,81.0540727 12.6490318,81.5719383 13.5234337,83.0841056 C14.3974124,84.596273 13.8789505,86.5299195 12.3650417,87.4028928 C10.8507096,88.2762889 8.91525956,87.7580006 8.04128089,86.2458332 C7.16687899,84.7336659 7.68576415,82.7995966 9.19967295,81.9270461" id="Fill-29" fill="#EE4036"></path>
                    <path d="M17.2444244,93.3829503 C18.4802683,92.1481053 20.4842823,92.1481053 21.7205495,93.3829503 C22.9568166,94.6173727 22.9568166,96.6190815 21.7205495,97.8539266 C20.4842823,99.0887716 18.4802683,99.0887716 17.2444244,97.8539266 C16.0081572,96.6190815 16.0081572,94.6173727 17.2444244,93.3829503" id="Fill-31" fill="#EE4036"></path>
                    <path d="M27.9831462,102.368784 C28.8571249,100.856617 30.7929982,100.338328 32.306907,101.211302 C33.8208158,102.084275 34.339701,104.017921 33.4652991,105.530512 C32.5917437,107.042256 30.6554471,107.560122 29.1415383,106.687571 C27.6276295,105.814175 27.1091676,103.880529 27.9831462,102.368784" id="Fill-33" fill="#EE4036"></path>
                    <path d="M40.6847438,108.271986 C41.1367579,106.585647 42.8724415,105.584581 44.561146,106.036498 C46.2494273,106.488415 47.2520692,108.222102 46.7992086,109.908441 C46.3467712,111.59478 44.6110876,112.596269 42.9228063,112.143929 C41.2341018,111.692435 40.2323064,109.958325 40.6847438,108.271986" id="Fill-35" fill="#EE4036"></path>
                    <g id="Group-39" transform="translate(54.173980, 107.510998)">
                        <mask id="mask-8" fill="white">
                            <use xlink:href="#path-7"></use>
                        </mask>
                        <g id="Clip-38"></g>
                        <path d="M0.308834011,3.1798212 C0.308834011,1.4334518 1.72624541,0.0180935876 3.47420274,0.0180935876 C5.22216007,0.0180935876 6.63914824,1.4334518 6.63914824,3.1798212 C6.63914824,4.92576786 5.22216007,6.34154881 3.47420274,6.34154881 C1.72624541,6.34154881 0.308834011,4.92576786 0.308834011,3.1798212" id="Fill-37" fill="#EE4036" mask="url(#mask-8)"></path>
                    </g>
                    <path d="M68.437566,109.459695 C67.9851286,107.773356 68.9873472,106.039246 70.6756285,105.587752 C72.364333,105.135412 74.1000166,106.1369 74.5520307,107.82324 C75.0048913,109.509579 74.0026727,111.243266 72.3139682,111.695183 C70.6256869,112.1471 68.8900033,111.146034 68.437566,109.459695" id="Fill-40" fill="#EE4036"></path>
                    <path d="M81.5979071,104.66333 C80.7239284,103.151163 81.2423903,101.217516 82.7562991,100.34412 C84.2702079,99.4715694 86.2065045,99.9894349 87.0800599,101.501602 C87.9544618,103.01377 87.4355767,104.947416 85.9216679,105.820389 C84.4081823,106.693363 82.4718857,106.175075 81.5979071,104.66333" id="Fill-42" fill="#EE4036"></path>
                    <path d="M93.0670042,96.6278324 C91.8307371,95.3929873 91.8307371,93.3912785 93.0670042,92.1568561 C94.3032714,90.922011 96.3072854,90.922011 97.5431293,92.1568561 C98.7793965,93.3912785 98.7793965,95.3929873 97.5431293,96.6278324 C96.3072854,97.8626774 94.3032714,97.8626774 93.0670042,96.6278324" id="Fill-44" fill="#EE4036"></path>
                    <path d="M96.3156231,20.8923021 C95.0797792,22.1267244 93.0757652,22.1267244 91.839498,20.8923021 C90.6032309,19.657457 90.6032309,17.6557482 91.839498,16.4209031 C93.0757652,15.1864807 95.0797792,15.1864807 96.3156231,16.4209031 C97.5518903,17.6557482 97.5518903,19.657457 96.3156231,20.8923021" id="Fill-46" fill="#EE4036"></path>
                    <path d="M85.5769013,11.9064261 C84.7029226,13.4185935 82.7670493,13.936459 81.2531405,13.0634857 C79.7392317,12.1905124 79.2203465,10.2568659 80.0947484,8.74469854 C80.9683038,7.23253118 82.9046004,6.71466564 84.4185092,7.58763897 C85.932418,8.4606123 86.4508799,10.3942588 85.5769013,11.9064261" id="Fill-48" fill="#EE4036"></path>
                    <path d="M72.875346,6.00301271 C72.4233319,7.68977474 70.6872251,8.69041777 68.9989438,8.23850083 C67.3106625,7.78658389 66.3080206,6.0528969 66.7608813,4.36655763 C67.2133186,2.67979561 68.9490022,1.67872982 70.6372835,2.13064677 C72.325988,2.58298646 73.3277834,4.31625069 72.875346,6.00301271" id="Fill-50" fill="#EE4036"></path>
                </g>
            </g>
        </g>
    </g>
</svg>